<svg xmlns="http://www.w3.org/2000/svg" viewBox="876.9490356445312 261.0566711425781 912.7698364257812 855.7158203125">
  <path fill="#008b95"
        d="m1306.57 465.08 2.695-.04c1.774-.067 4.412-.173 7.811-.587 3.364-.453 7.63-1.106 11.965-3.293 2.14-1.107 4.224-2.693 5.772-4.907 1.587-2.186 2.547-4.973 3.427-8 3.547-12.2 5.293-27.706 5.293-45.386-.04-17.68-2.026-37.734-7.92-58.48-2.97-10.334-7.004-20.827-12.668-30.747-2.85-4.947-6.104-9.72-9.825-14.187-3.755-4.426-7.956-8.546-12.64-12.106-9.336-7.187-20.693-12.014-32.959-13.747-6.154-.893-12.372-1.147-18.905-.747-3.1.16-6.37.507-9.53.974a92.178 92.178 0 0 0-9.477 1.906c-12.51 3.16-24.524 8.92-34.645 17.36a85.882 85.882 0 0 0-13.688 14.294 95.302 95.302 0 0 0-2.9 4.066l-.69 1.04-.173.267c-.134.213-.01.013-.088.133l-.35.574-1.38 2.293a66.586 66.586 0 0 0-4.099 8.707c-4.763 12.253-5.79 26.066-4.912 39.946.9 13.934 3.776 27.987 7.241 42.014 3.455 14.053 7.666 28.08 11.223 42.533 3.563 14.427 6.244 29.413 6.479 44.667.052 3.813-.03 7.626-.3 11.426-.151 1.907-.3 3.8-.535 5.694a65.438 65.438 0 0 1-.359 2.826l-.202 1.414-.1.706-.134.787c-1.252 7.64-3.75 15.387-7.448 22.307-3.672 6.973-8.497 13.213-13.912 18.56-5.414 5.36-11.394 9.866-17.546 13.746-12.336 7.787-25.346 13.08-37.888 17.814-6.224 2.266-12.38 4.52-18.464 6.746-1.482.56-2.958 1.12-4.431 1.68l-2.17.854-.94.373-1.102.48c-1.57.64-2.712 1.227-3.944 1.813-1.267.68-2.543 1.334-3.767 2.08-9.904 5.867-18.033 14.267-24.892 23.24-6.845 9.027-12.329 18.787-16.994 28.454-9.252 19.453-15.651 38.493-20.619 55.533-5.115 17.04-8.721 32.187-11.79 44.64l-9.265 39.307 1.31-10.48a1119.98 1119.98 0 0 1 4.121-29.574 632.197 632.197 0 0 1 3.517-21.053 660.026 660.026 0 0 1 4.972-24.693c2.026-8.774 4.396-18.08 7.303-27.814 2.915-9.733 6.34-19.906 10.823-30.24 4.473-10.32 9.834-20.906 16.929-31.12 7.048-10.173 16.092-19.986 27.763-27.346 1.442-.934 2.957-1.76 4.469-2.614 1.61-.826 3.303-1.706 4.679-2.293l1.09-.507 1.282-.533 2.297-.947c1.527-.6 3.057-1.213 4.593-1.813 6.043-2.293 12.16-4.627 18.343-6.973 12.164-4.72 24.232-10.014 35.183-16.96 10.912-6.934 20.548-15.84 26.353-27.04 2.933-5.587 4.872-11.587 5.913-18.067l.088-.533.086-.627.17-1.253a54.97 54.97 0 0 0 .303-2.507c.2-1.667.32-3.347.445-5.04.222-3.373.274-6.773.207-10.187-.237-13.68-2.896-27.52-6.208-41.466-3.344-13.96-7.493-28.08-10.97-42.56-3.48-14.454-6.474-29.294-7.383-44.574-.464-7.64-.367-15.386.604-23.106 1.009-7.72 2.8-15.44 5.801-22.747 1.51-3.693 3.17-7.12 5.316-10.733l1.447-2.307.36-.573.28-.427.204-.293.814-1.187a91.854 91.854 0 0 1 3.414-4.64 99.187 99.187 0 0 1 16.036-16.253c11.822-9.507 25.73-16.027 39.974-19.214 3.558-.813 7.138-1.44 10.714-1.866 3.597-.44 7.096-.734 10.748-.827 6.965-.24 14.188.2 21.105 1.413 13.919 2.32 27.044 8.307 37.47 16.8 5.257 4.2 9.774 9.067 13.771 14.12 3.948 5.094 7.306 10.454 10.188 15.907 5.718 10.92 9.544 22.16 12.264 33.067 2.707 10.92 4.16 21.586 4.974 31.72.8 10.146.893 19.786.48 28.826a202.085 202.085 0 0 1-2.707 25.16c-1.333 7.694-3.067 14.72-5.24 20.827-1.053 3.067-2.28 6.067-4.2 8.44-1.893 2.387-4.32 3.987-6.663 5.027-4.746 2.053-9.086 2.44-12.516 2.706-3.454.214-6.098.134-7.877.08-1.776-.08-2.693-.133-2.693-.133"></path>
  <path fill="#008b95"
        d="M1305.439 474.013s-.266.24-.778.72c-.49.507-1.2 1.254-1.988 2.347-1.616 2.147-3.545 5.613-5.233 10.307-1.683 4.693-3.296 10.586-4.227 17.426-.442 3.414-.792 7.094-.55 10.734.105 2.04.289 3.893.58 5.84.158.973.292 1.973.521 2.96.195.986.419 1.973.699 2.96a40.9 40.9 0 0 0 13.642 21.426c7.058 5.827 16.284 9.84 26.308 12.654 10.027 2.893 20.894 4.64 32.054 6.24 11.173 1.573 22.693 2.853 34.346 4.866 5.827 1 11.707 2.16 17.574 3.787 2.933.827 5.866 1.773 8.786 2.88.734.267 1.454.573 2.187.867l.547.226.693.307.987.44 1.96.867.986.44 1.08.56c2.934 1.466 5.56 3.026 8.134 4.693 2.56 1.693 5.04 3.467 7.373 5.387 4.653 3.84 8.92 7.986 12.64 12.413 3.747 4.4 7.093 8.947 10.027 13.587 1.493 2.293 2.853 4.626 4.2 6.933 1.253 2.347 2.52 4.653 3.64 6.973 4.64 9.24 7.986 18.334 10.706 26.76 2.627 8.48 4.6 16.334 6.027 23.334.747 3.493 1.293 6.8 1.8 9.84.507 3.053.96 5.84 1.28 8.386.627 5.08 1.067 9.067 1.253 11.814.24 2.72.294 4.186.294 4.186s-.56-1.36-1.507-3.92c-.96-2.546-2.373-6.293-4.173-11.053-.947-2.36-1.84-5-2.947-7.84-1.067-2.853-2.32-5.907-3.573-9.173-2.587-6.507-5.507-13.8-9-21.574a313.816 313.816 0 0 0-5.64-11.96c-2-4.08-4.227-8.2-6.6-12.36-4.747-8.306-10.294-16.64-16.92-24.32-3.347-3.813-6.907-7.493-10.854-10.773-1.973-1.627-3.973-3.253-6.093-4.72-2.093-1.493-4.333-2.867-6.413-4.067l-.8-.48-.934-.493-1.906-.973-.96-.494-.12-.066c.306.146.026.013.066.026l-.226-.093-.44-.187a36.036 36.036 0 0 0-1.787-.773 85.16 85.16 0 0 0-7.547-2.653c-5.2-1.574-10.64-2.894-16.186-4.014-11.094-2.24-22.534-3.986-33.84-6.08-11.307-2.066-22.534-4.533-33.202-8.16-10.598-3.693-20.83-8.706-28.678-16.186-3.894-3.72-7.156-7.96-9.474-12.467a48.56 48.56 0 0 1-4.616-13.707 41.763 41.763 0 0 1-.51-3.36c-.164-1.106-.224-2.213-.311-3.293a64.957 64.957 0 0 1-.117-6.293c.053-4.28.888-8.054 1.698-11.574 1.722-7.013 3.932-12.88 6.244-17.493 2.31-4.6 4.704-7.907 6.623-9.88.945-1 1.77-1.667 2.325-2.093.574-.4.87-.614.87-.614m-221.409 326.24c.405-1.586.894-3.133 1.338-4.693.435-1.56.948-3.08 1.405-4.613a471.027 471.027 0 0 1 2.839-9.187l5.753-18.133 5.687-18.027 5.637-18.013 7.574-24.187 6.42 24.64c1.646 6.32 3.31 12.64 4.806 19l2.178 9.56c.741 3.187 1.354 6.4 2.014 9.613.671 3.2 1.244 6.414 1.864 9.627.599 3.213 1.11 6.453 1.651 9.68.567 3.227 1.021 6.467 1.47 9.72.473 3.24.9 6.493 1.273 9.747.396 3.253.728 6.52 1.036 9.786.336 3.254.565 6.534.785 9.8.265 3.267.396 6.56.517 9.84.056 1.64.154 3.267.176 4.92l.043 4.92c.072 3.28-.03 6.574-.117 9.854-.046 3.28-.296 6.56-.504 9.84-.198 3.266-.639 6.533-.954 9.786-.149 1.627-.468 3.254-.705 4.867-.248 1.613-.51 3.24-.8 4.84-.38-3.267-.57-6.507-.95-9.733-.373-3.227-.62-6.454-1.107-9.667-.415-3.2-.783-6.4-1.274-9.6a421.675 421.675 0 0 0-1.424-9.56 442.533 442.533 0 0 0-1.56-9.52l-.808-4.76-.87-4.747-.858-4.733-.928-4.733c-.588-3.16-1.197-6.32-1.87-9.467-.643-3.147-1.243-6.293-1.94-9.44l-2.019-9.413c-.692-3.147-1.35-6.28-2.096-9.414-.712-3.133-1.364-6.28-2.121-9.413l-4.43-18.773-2.269-9.387-2.335-9.373 13.992.453a645.885 645.885 0 0 1-3.332 9.093c-1.188 3-2.39 6-3.642 8.974-1.3 2.96-2.583 5.933-3.975 8.853l-2.112 4.36c-.69 1.467-1.47 2.88-2.207 4.32-1.48 2.88-3.064 5.707-4.669 8.52-.799 1.4-1.661 2.773-2.488 4.16-.824 1.4-1.717 2.747-2.583 4.12-1.752 2.72-3.58 5.4-5.506 8.013-.971 1.307-1.912 2.627-2.918 3.907-1.024 1.253-2.016 2.533-3.086 3.773m352.969 9.12c-.947-1.973-1.773-3.986-2.693-5.946l-2.64-5.934-5.32-11.786c-1.8-3.894-3.574-7.787-5.427-11.654-.92-1.92-1.8-3.866-2.76-5.773-.96-1.907-1.827-3.853-2.8-5.76a1024.056 1024.056 0 0 0-5.733-11.427l-2.907-5.68-2.973-5.653c-1.987-3.76-3.947-7.533-6.014-11.253-1.973-3.774-4.066-7.494-6.106-11.227l13.493-1.613c-.933 3.68-1.853 7.36-2.733 11.053l-2.574 11.08a639.26 639.26 0 0 0-2.453 11.107l-2.32 11.133c-.76 3.707-1.467 7.44-2.173 11.16-.707 3.72-1.4 7.44-2.04 11.173-1.267 7.467-2.52 14.947-3.547 22.44a400.564 400.564 0 0 0-1.493 11.267c-.467 3.76-.92 7.52-1.28 11.28-.36 3.773-.734 7.533-1.014 11.32-.16 1.88-.266 3.773-.386 5.653a202.61 202.61 0 0 0-.32 5.68 359.034 359.034 0 0 0-.36 11.36c-.04 1.907-.014 3.787-.027 5.694l.093 5.693c.107 3.8.267 7.613.614 11.413.253 3.827.76 7.614 1.253 11.454-1.4-3.6-2.64-7.28-3.667-11.014-1.04-3.733-1.88-7.533-2.693-11.346-.72-3.814-1.373-7.654-1.867-11.52-.493-3.854-.933-7.734-1.213-11.614-.307-3.88-.547-7.76-.64-11.653a215.09 215.09 0 0 1-.147-5.827c-.053-1.946-.04-3.893-.026-5.84.013-1.946.04-3.893.093-5.826.027-1.947.067-3.894.173-5.827.16-3.893.387-7.773.654-11.64.253-3.88.626-7.747 1-11.6.373-3.867.826-7.72 1.32-11.573.506-3.84 1.04-7.68 1.6-11.52a822.173 822.173 0 0 1 1.92-11.467c.68-3.827 1.373-7.64 2.173-11.427.76-3.8 1.573-7.586 2.413-11.373.814-3.787 1.747-7.547 2.654-11.307.933-3.76 1.906-7.506 2.88-11.253l4.893-18.693 8.6 17.08c1.96 3.893 3.96 7.76 5.84 11.706a239 239 0 0 1 2.773 5.92c.894 2 1.827 3.974 2.694 5.974 1.72 4.026 3.426 8.04 5 12.12.8 2.026 1.546 4.08 2.32 6.133.8 2.027 1.453 4.12 2.186 6.173 1.427 4.134 2.72 8.32 3.947 12.507.64 2.093 1.16 4.213 1.733 6.32.587 2.107 1.067 4.24 1.587 6.36.987 4.253 1.88 8.52 2.6 12.827.36 2.146.747 4.293 1.04 6.453.293 2.173.573 4.32.8 6.493M1241.821 555.44s-1.422 1.053-3.864 3.24c-2.441 2.2-5.845 5.6-9.748 10.24-3.88 4.653-8.153 10.64-12.184 17.933a118.61 118.61 0 0 0-10.432 25.694 119.635 119.635 0 0 0-3.269 15.413c-.82 5.373-1.315 10.987-1.48 16.773-.2 5.774-.039 11.734.476 17.8a178.894 178.894 0 0 0 2.427 18.48c2.206 12.494 5.734 25.227 10.152 37.92 1.081 3.16 2.326 6.347 3.473 9.467a282.11 282.11 0 0 0 1.876 4.787l1.939 4.733c2.642 6.333 5.482 12.68 8.3 19.067 2.862 6.4 5.726 12.813 8.578 19.186 2.815 6.44 5.6 12.88 8.27 19.334 5.3 12.92 10.145 25.92 13.888 38.866 3.797 12.934 6.486 25.827 7.713 38.267 1.275 12.427.973 24.387-.737 35.187-1.686 10.826-4.759 20.44-8.431 28.44-.88 2.013-1.877 3.906-2.79 5.733-.994 1.8-1.923 3.533-2.938 5.147-1.937 3.24-3.935 6.08-5.77 8.6-3.682 5.04-7.06 8.573-9.302 11a188.257 188.257 0 0 1-3.601 3.573s1.01-1.44 2.905-4.133c1.853-2.72 4.459-6.774 7.38-12.107 2.876-5.347 5.983-12.027 8.481-19.987 2.546-7.933 4.418-17.133 5.036-27.266.636-10.12-.005-21.134-1.981-32.627a211.79 211.79 0 0 0-3.841-17.547c-1.596-5.933-3.452-11.96-5.515-18.04-4.183-12.16-9.217-24.546-14.748-37.04-2.735-6.266-5.603-12.546-8.521-18.88-2.9-6.36-5.812-12.746-8.724-19.146a551.401 551.401 0 0 1-8.451-19.507l-1.999-4.987-1.909-4.96c-1.255-3.4-2.43-6.72-3.521-10.106-2.194-6.76-4.183-13.534-5.78-20.347-1.599-6.8-2.884-13.613-3.811-20.373a193.336 193.336 0 0 1-1.627-20.054 162.01 162.01 0 0 1 .707-19.306 145.968 145.968 0 0 1 2.996-18.067 126.614 126.614 0 0 1 5.032-16.333c1.987-5.107 4.201-9.867 6.593-14.227 2.416-4.347 4.944-8.32 7.534-11.893 2.614-3.547 5.224-6.734 7.801-9.507a108.01 108.01 0 0 1 7.428-7.267c4.66-4.186 8.747-6.92 11.548-8.693 2.825-1.76 4.441-2.48 4.441-2.48"></path>
  <path fill="#008b95"
        d="M1249.863 620.253a3.248 3.248 0 1 1 .002-6.495 3.248 3.248 0 0 1-.002 6.495m-7.355 26.707a5.602 5.602 0 0 1-5.605-5.6 5.605 5.605 0 1 1 11.209 0c0 3.093-2.51 5.6-5.604 5.6m-1.94 27.147a7.368 7.368 0 0 1-7.373-7.374 7.377 7.377 0 0 1 7.373-7.373 7.377 7.377 0 0 1 7.375 7.373 7.369 7.369 0 0 1-7.375 7.374m2.733 26.6a8.65 8.65 0 0 1-8.657-8.654c0-4.773 3.876-8.653 8.657-8.653 4.78 0 8.656 3.88 8.656 8.653a8.65 8.65 0 0 1-8.656 8.654m6.431 25.506c-5.247 0-9.5-4.266-9.5-9.506 0-5.254 4.253-9.507 9.5-9.507s9.5 4.253 9.5 9.507c0 5.24-4.253 9.506-9.5 9.506m9.258 24.2c-5.5 0-9.96-4.466-9.96-9.96 0-5.506 4.46-9.96 9.96-9.96 5.5 0 9.96 4.454 9.96 9.96 0 5.494-4.46 9.96-9.96 9.96m11.277 22.947c-5.548 0-10.044-4.507-10.044-10.053 0-5.547 4.496-10.04 10.044-10.04 5.546 0 10.044 4.493 10.044 10.04 0 5.546-4.498 10.053-10.044 10.053m11.985 22.307c-5.444 0-9.857-4.414-9.857-9.854 0-5.44 4.413-9.853 9.857-9.853 5.444 0 9.857 4.413 9.857 9.853 0 5.44-4.413 9.854-9.857 9.854m11.698 22.186a9.385 9.385 0 0 1-9.389-9.386 9.385 9.385 0 0 1 9.388-9.387c5.184 0 9.388 4.2 9.388 9.387 0 5.186-4.204 9.386-9.388 9.386m10.608 22.414a8.62 8.62 0 0 1-8.625-8.627c0-4.76 3.861-8.613 8.625-8.613 4.763 0 8.624 3.853 8.624 8.613a8.62 8.62 0 0 1-8.624 8.627m8.616 22.88a7.515 7.515 0 0 1-7.518-7.52c0-4.147 3.366-7.52 7.518-7.52a7.524 7.524 0 0 1 7.52 7.52c0 4.16-3.366 7.52-7.52 7.52m5.437 23.413a6.046 6.046 0 1 1 0-12.093c3.342 0 6.051 2.706 6.051 6.04a6.05 6.05 0 0 1-6.05 6.053m.749 23.533a4.144 4.144 0 0 1-4.145-4.146 4.144 4.144 0 1 1 8.289 0 4.143 4.143 0 0 1-4.144 4.146m-5.264 22.414a1.68 1.68 0 1 1 0-3.36 1.68 1.68 0 1 1 0 3.36"></path>
  <path fill="#7a9d3e"
        d="M1640.293 601.96s20.654-67.733-27.2-119.933c-39.026-42.56-71.333-38.814-101.8-78.774 0 0-53.973 152.64 102.987 200.68 0 0 2.907-68.866-59.413-120.68 0 0 66.506 34.84 85.426 118.707m10.12-114.76s-13-38.56 13.614-69.36c21.72-25.107 40.333-23.493 57.173-46.96 0 0 33.573 86.787-55.813 117.013 0 0-2.814-39.506 32.12-70.32 0 0-37.627 21.134-47.094 69.627m17.4 132.707s-15.546-58.347 26.814-101.36c34.56-35.08 61.96-30.907 89.133-64.027 0 0 41.36 131.693-93.853 167.853 0 0-.374-58.76 54.293-101.013 0 0-57.72 27.667-76.387 98.547"></path>
  <path fill="#008b95"
        d="M1272.055 1011.893c-202.886 0-367.358-164.466-367.358-367.346 0-94.387 35.607-180.454 94.104-245.507-74.8 67.24-121.852 164.747-121.852 273.253 0 202.88 164.472 367.347 367.359 367.347 108.505 0 205.999-47.053 273.252-121.84-65.067 58.493-151.12 94.093-245.505 94.093"></path>
  <path fill="#7a9d3e"
        d="M1627.347 805.813c-69.614 208.96-295.432 321.92-504.387 252.307-97.205-32.373-173.62-98.573-220.561-181.147 43.596 100.107 127.87 182.014 239.618 219.254 208.956 69.6 434.77-43.36 504.383-252.307 37.227-111.747 22.227-228.307-31.733-323.24 37.92 87.08 45.066 187.933 12.68 285.133"></path>
</svg>
