<svg xmlns="http://www.w3.org/2000/svg" viewBox="0 0 918.1 100.001">
  <path fill="#008b95" fill-rule="evenodd" stroke="#7a9d3e" stroke-linecap="round" stroke-width=".3mm"
        d="M314.227 75.709a185.029 185.029 0 0 0-1.327 4.992 4.297 4.297 0 0 0 2.226-.637 6.392 6.392 0 0 0 1.174-.913 7.496 7.496 0 0 0 .625-.693q1.322-1.648 2.775-4.957 1.8-4.1 4.15-11.65a447.866 447.866 0 0 0 .508-1.642q2.201-7.169 5.242-17.858a3210.802 3210.802 0 0 0 2.262-7.992q1.199-4.256 2.535-9.036a6625.458 6625.458 0 0 0 3.403-12.222q.5 3.2 1.2 8.05.7 4.85 1.55 10.65.85 5.8 1.75 11.85t1.75 11.65q.85 5.6 1.6 10.15.75 4.55 1.25 7.15a24.719 24.719 0 0 0 .107.564q.818 4.051 2.643 5.736a6.529 6.529 0 0 0 2.762 1.514 8.71 8.71 0 0 0 2.288.286 38.791 38.791 0 0 1 .002-.086q.109-3.882 1.048-9.964.95-6.15 2.6-13.65 1.65-7.5 3.75-15.55t4.3-15.8q2.2-7.75 4.35-14.4a417.775 417.775 0 0 1 1.3-3.956q.628-1.878 1.212-3.556A209.45 209.45 0 0 1 374.6.001a5.1 5.1 0 0 0-2.533.668 6.763 6.763 0 0 0-1.467 1.132 21.228 21.228 0 0 0-.348.356q-.98 1.027-1.512 1.882a5.141 5.141 0 0 0-.44.862q-.4.9-1.55 4.35a169.746 169.746 0 0 0-.027.082q-1.141 3.429-2.673 8.518-1.55 5.15-3.35 11.3t-3.45 12.6q-1.65 6.45-3 12.4a198.694 198.694 0 0 0-.367 1.648q-.531 2.436-.946 4.65a117.661 117.661 0 0 0-.737 4.352q-.3-1.8-.656-4.332a325.099 325.099 0 0 1-.244-1.768l-1.1-8.15q-.6-4.45-1.2-9.4t-1.2-9.95a495.008 495.008 0 0 0-.176-1.494 448.956 448.956 0 0 0-1.324-10.106q-.8-5.6-2-10.05-1.2-4.45-3.15-7T336.2.001a10.428 10.428 0 0 0-1.01.05q-2.481.241-5.34 1.65a25.56 25.56 0 0 0-1.919 1.051 29.03 29.03 0 0 0-4.631 3.499 30.416 30.416 0 0 0-.571.539 26.986 26.986 0 0 0-4.529 5.711 16.101 16.101 0 0 0-1.054 2.125 12.387 12.387 0 0 0-.946 4.675 7.818 7.818 0 0 0 .052.908 5.937 5.937 0 0 0 1.298 3.142q1.35 1.65 4.65 1.65-.281-.844-.404-1.846a13.586 13.586 0 0 1-.096-1.654 13.63 13.63 0 0 1 .021-.75q.061-1.102.296-2.33a25.115 25.115 0 0 1 .583-2.37q.9-3.05 2.45-5.85a19.378 19.378 0 0 1 .946-1.54 15.887 15.887 0 0 1 2.754-3.11 8.834 8.834 0 0 1 1.299-.936 6.353 6.353 0 0 1 3.251-.914q.8 0 1.15.65a2.456 2.456 0 0 1 .129.281q.117.304.172.67a4.7 4.7 0 0 1 .049.699 10.613 10.613 0 0 1-.048.991 13.245 13.245 0 0 1-.202 1.359 32.024 32.024 0 0 1-.004.02q-.247 1.234-.446 1.73-2.812 9.562-5.195 17.523a2408.982 2408.982 0 0 1-2.705 8.977q-3.4 11.2-5.95 19.35-2.55 8.15-4.35 14.05-.914 2.996-1.673 5.708ZM8.073 80.538a26.16 26.16 0 0 0 3.027.163q2.531 0 5.442-.364a64.669 64.669 0 0 0 4.758-.786 59.461 59.461 0 0 0 2.141-.474 66.032 66.032 0 0 0 9.359-3.026q5.8-2.35 10.7-5.85a33.953 33.953 0 0 0 1.214-.908 29.24 29.24 0 0 0 6.686-7.292q3-4.7 3-10.5 0-2.4-.8-5a10.606 10.606 0 0 0-1.39-2.846 14.585 14.585 0 0 0-1.76-2.104q-2.35-2.35-6.9-4.05-2.986-1.116-7.199-1.672a62.034 62.034 0 0 0-4.751-.428 46.48 46.48 0 0 0 .977-.161 50.895 50.895 0 0 0 6.923-1.739q4-1.3 7.4-3.55 3.4-2.25 5.5-5.7a13.923 13.923 0 0 0 1.705-4.374 19.056 19.056 0 0 0 .395-3.976 21.889 21.889 0 0 0-.034-1.235q-.245-4.348-2.266-7.115-2.3-3.15-5.9-4.8-3.6-1.65-7.6-2.2-4-.55-7.3-.55-7.8 0-13.25 1.7T7.7 5.501a.892.892 0 0 0 .01.133q.048.314.314.682a3.635 3.635 0 0 0 .276.335q.6.65 1.35 1.1a5.545 5.545 0 0 0 .134.078q.417.234.752.321a1.459 1.459 0 0 0 .364.051 1.109 1.109 0 0 0 .131-.009q.54-.064 1.512-.632a15.04 15.04 0 0 0 .657-.409 16.022 16.022 0 0 1 .149-.097q1.063-.681 2.642-1.465a55.581 55.581 0 0 1 1.659-.788q2.85-1.3 7.05-2a121.088 121.088 0 0 0-.168.33q-2.52 4.982-5.182 11.37-2.75 6.6-5.35 13.5-2.6 6.9-4.75 13.2-1.344 3.937-2.433 7.25a443.067 443.067 0 0 0-1.217 3.75q-1.125 3.525-1.744 5.531a161.284 161.284 0 0 0-.356 1.169q-.4 1.3-.9 2.9-.297.95-.417 1.759a7.078 7.078 0 0 0-.083 1.041 4.052 4.052 0 0 0 .636 2.221A5.046 5.046 0 0 0 3.8 68.001a5.916 5.916 0 0 0 2.132 1.122A7.378 7.378 0 0 0 8 69.401a541.622 541.622 0 0 0 .072-.241A588.201 588.201 0 0 0 12.5 53.501q2.2-8.2 4.5-16.3 1.7 0 3.65-.05t3.85-.05q4.3 0 8.7.45a40.72 40.72 0 0 1 2.424.32 34.381 34.381 0 0 1 5.726 1.43q3.75 1.3 6.05 3.8a8.405 8.405 0 0 1 1.977 3.75 11.894 11.894 0 0 1 .323 2.85 13.859 13.859 0 0 1-.845 4.744 17.429 17.429 0 0 1-2.105 4.006 24.784 24.784 0 0 1-3.878 4.335 33.943 33.943 0 0 1-4.422 3.315 39.512 39.512 0 0 1-5.64 2.953 51.565 51.565 0 0 1-7.01 2.397q-7.3 1.95-15.9 1.95a96.8 96.8 0 0 1-.729-.003q-3.326-.025-5.105-.285A8.797 8.797 0 0 1 3 72.901q-1.364-.379-2.096-.471a3.312 3.312 0 0 0-.404-.029q-.227 0-.351.062a.249.249 0 0 0-.149.238q0 1.411.302 2.558A5.941 5.941 0 0 0 2.8 78.851a7.586 7.586 0 0 0 .212.134q1.931 1.187 5.061 1.553ZM181.3 55.701l1 1q-1.4 4.9-4.3 9.25a33.076 33.076 0 0 1-3.366 4.279 26.302 26.302 0 0 1-3.084 2.821 15.336 15.336 0 0 1-2.6 1.648q-2.235 1.102-4.45 1.102-2.8 0-4.8-1.9a12.541 12.541 0 0 1-2.436-3.248 15.513 15.513 0 0 1-.714-1.552q-1.15-2.9-1.7-5.95a39.77 39.77 0 0 1-.356-2.355q-.194-1.63-.194-2.995 1.1 0 3.2-.55t4.3-1.7q2.2-1.15 3.75-3 1.55-1.85 1.55-4.35a4.716 4.716 0 0 0-.224-1.49 3.819 3.819 0 0 0-1.276-1.81q-1.5-1.2-3.5-1.2a8.836 8.836 0 0 0-4.86 1.474 11.463 11.463 0 0 0-.94.676 19.788 19.788 0 0 0-3.086 3.103 25.549 25.549 0 0 0-1.764 2.497q-2.15 3.45-3.85 7.35a107.147 107.147 0 0 0-1.886 4.604 86.823 86.823 0 0 0-1.014 2.796q-1.14 3.325-1.919 5.568a755.136 755.136 0 0 1-.081.232 6.857 6.857 0 0 1-.412.99q-.523 1.008-1.288 1.46a4.601 4.601 0 0 1-1.56.586 4.315 4.315 0 0 1-.74.064 3.213 3.213 0 0 1-1.013-.151q-.904-.299-1.405-1.191a3.315 3.315 0 0 1-.032-.058q-.75-1.4-.9-3.55a63.192 63.192 0 0 1-.147-3.878 69.681 69.681 0 0 1-.003-.572 38.862 38.862 0 0 1 .32-4.811q.306-2.451.907-5.179a73.103 73.103 0 0 1 .473-2.01 111.61 111.61 0 0 1 2.574-8.715 133.177 133.177 0 0 1 1.976-5.435q2.85-7.35 6.25-14.25t6.8-12.5a92.724 92.724 0 0 1 2.379-3.728q1.161-1.72 2.256-3.142a40.92 40.92 0 0 1 1.665-2.03q2.768-3.15 4.534-3.294a2.053 2.053 0 0 1 .166-.006q1.17 0 1.956 1.326a5.662 5.662 0 0 1 .294.574q.769 1.719.843 4.093a16.443 16.443 0 0 1 .007.507q0 3.4-1.5 7.65a39.161 39.161 0 0 1-2.58 5.733 47.444 47.444 0 0 1-1.67 2.817q-2.75 4.3-6.5 8.1t-8.15 6.5q-3.3 8.1-4.95 15.75a92.741 92.741 0 0 0-.939 4.969q-.389 2.444-.565 4.571a40.246 40.246 0 0 0-.146 3.31q1.6-4 3.85-8.8 2.25-4.8 5.15-9.2 2.9-4.4 6.3-7.2t7.1-2.8a8.571 8.571 0 0 1 6.219 2.519 10.267 10.267 0 0 1 .081.081 8.568 8.568 0 0 1 2.6 6.184 10.458 10.458 0 0 1 0 .116 10.347 10.347 0 0 1-.339 2.705 8.221 8.221 0 0 1-1.311 2.745q-1.65 2.25-4 3.6a21.422 21.422 0 0 1-3.158 1.498 18.359 18.359 0 0 1-1.542.502q-2.35.65-3.85.65.082.658.435 2.195a89.051 89.051 0 0 0 .165.705 27.137 27.137 0 0 0 .795 2.685 33.617 33.617 0 0 0 .655 1.715 16.237 16.237 0 0 0 1.211 2.381 13.167 13.167 0 0 0 1.139 1.569 4.959 4.959 0 0 0 1.237 1.068 4.146 4.146 0 0 0 2.163.582 7.8 7.8 0 0 0 4.014-1.137A10.765 10.765 0 0 0 172 69.801a21.611 21.611 0 0 0 2.46-2.472q1.278-1.496 2.49-3.378a53.189 53.189 0 0 0 2.768-4.868 66.128 66.128 0 0 0 1.582-3.382Zm493.2.1 1.3 1.2a42.583 42.583 0 0 1-4.006 7.335 38.605 38.605 0 0 1-1.094 1.515 28.838 28.838 0 0 1-3.357 3.731 23.002 23.002 0 0 1-3.243 2.519 14.763 14.763 0 0 1-4.145 1.859 12.951 12.951 0 0 1-3.355.441 10.271 10.271 0 0 1-1.964-.176q-1.146-.224-2.032-.732a5.225 5.225 0 0 1-1.154-.892q-1.75-1.8-1.75-4.5a13.124 13.124 0 0 1 .176-2.079q.162-1.008.473-2.108a23.043 23.043 0 0 1 .151-.513q.8-2.6 1.55-5.3a21.219 21.219 0 0 0 .601-2.903 16.807 16.807 0 0 0 .149-2.197 9.726 9.726 0 0 0-.077-1.276q-.215-1.617-1.023-2.424a3.664 3.664 0 0 0-2.65-1.1 4.623 4.623 0 0 0-.05 0 5.953 5.953 0 0 0-3.732 1.32 8.18 8.18 0 0 0-.768.68q-2 2-3.65 5.15-1.65 3.15-3.1 6.65-1.45 3.5-2.75 6.65a44.193 44.193 0 0 1-.975 2.2q-.504 1.056-1.009 1.938a20.912 20.912 0 0 1-.616 1.012q-1.3 2-2.7 2a2.236 2.236 0 0 1-1.605-.704q-.701-.689-1.233-2.055a11.663 11.663 0 0 1-.162-.441q-.656-1.911-.921-4.106a25.855 25.855 0 0 1-.179-3.094q0-3.67.935-8.39a72.896 72.896 0 0 1 .665-3.01 129.608 129.608 0 0 1 2.391-8.524 157.921 157.921 0 0 1 1.809-5.376q2.6-7.3 5.85-14.3 3.25-7 6.65-12.7a87.584 87.584 0 0 1 2.443-3.876q1.222-1.825 2.388-3.324a39.72 39.72 0 0 1 1.569-1.9 19.478 19.478 0 0 1 1.363-1.407Q653.816.601 655.5.601q1.695 0 2.459 1.905a5.718 5.718 0 0 1 .091.245q.75 2.15.75 4.15a15.955 15.955 0 0 1-.176 2.268q-.164 1.143-.484 2.434a36.141 36.141 0 0 1-.59 2.098 55.096 55.096 0 0 1-1.596 4.405 72.98 72.98 0 0 1-1.854 4.145q-2.2 4.55-5.1 8.95a61.285 61.285 0 0 1-6.088 7.821 56.847 56.847 0 0 1-.212.229 37.76 37.76 0 0 1-3.317 3.172 27.853 27.853 0 0 1-3.583 2.578q-1.2 2.9-2.05 6.5a62.247 62.247 0 0 0-1.143 6.185 56.757 56.757 0 0 0-.107.865q-.4 3.45-.4 6.15a41.325 41.325 0 0 0 .007.782q.008.386.023.726a21.261 21.261 0 0 0 .02.392 20.408 20.408 0 0 0 .082.961 16.896 16.896 0 0 0 .068.539q1.4-4.1 3.05-7.95a67.355 67.355 0 0 1 2.387-5.011 57.403 57.403 0 0 1 1.163-2.089 40.351 40.351 0 0 1 2.217-3.404 32.497 32.497 0 0 1 1.833-2.296 19.99 19.99 0 0 1 2.284-2.235 15.47 15.47 0 0 1 2.266-1.565q2.4-1.35 5.1-1.35a9.404 9.404 0 0 1 1.827.166q1.553.308 2.623 1.184 1.65 1.35 2.4 3.4t.75 4.25q0 3.1-1.05 6a152.389 152.389 0 0 1-2.081 5.431 140.069 140.069 0 0 1-.069.169q-1.1 2.7-1.1 5.2a7.436 7.436 0 0 0 .067 1.038q.168 1.182.75 1.826a2.244 2.244 0 0 0 .033.036 2.813 2.813 0 0 0 2.049.898 3.681 3.681 0 0 0 .101.002 5.853 5.853 0 0 0 1.94-.357q.801-.281 1.657-.783a14.947 14.947 0 0 0 1.553-1.06 26.056 26.056 0 0 0 2.661-2.382q1.267-1.29 2.524-2.872a44.523 44.523 0 0 0 .465-.596q2.8-3.65 4.8-7.95Zm103.5 44.2q-.8 0-1.55-.85a6.89 6.89 0 0 1-.864-1.213 6.03 6.03 0 0 1-.286-.587 21.496 21.496 0 0 1-.136-.33q-.25-.624-.263-.803a.251.251 0 0 1-.001-.017 185.983 185.983 0 0 1 1.345-4.501q.709-2.264 1.405-4.249 1.35-3.85 2.7-7.9a90.393 90.393 0 0 0 1.172-3.812q.56-1.967 1.112-4.183a159.706 159.706 0 0 0 .366-1.505 155.63 155.63 0 0 0 .989-4.461q.836-4.027 1.711-9.089 1.4-8.1 2.8-20.1.1-.9.4-1.3a.711.711 0 0 1 .264-.206q.391-.19 1.202-.194a7.08 7.08 0 0 1 .034 0 7.317 7.317 0 0 1 1.344.114q.734.138 1.297.44a3.215 3.215 0 0 1 1.059.896 5.422 5.422 0 0 1 .89 1.71 4.944 4.944 0 0 1 .21 1.44q0 1.4-.6 5-.412 2.475-1.061 5.564a217.659 217.659 0 0 1-.639 2.936q1.7-3.3 4.25-6.7a25.685 25.685 0 0 1 5.542-5.482 24.317 24.317 0 0 1 .308-.218q3.3-2.3 7.2-2.3 4.4 0 7.25 3.15a10.787 10.787 0 0 1 2.572 5.253 15.395 15.395 0 0 1 .278 2.997 19.695 19.695 0 0 1-.585 4.659 26.255 26.255 0 0 1-1.165 3.591q-1.75 4.35-4.9 8.2-3.15 3.85-7.45 6.25a19.092 19.092 0 0 1-9.176 2.397 22.354 22.354 0 0 1-.324.003q-1.795 0-3.114-.287a7.814 7.814 0 0 1-1.086-.313q-1.324-.497-1.552-.993a.492.492 0 0 1-.048-.207.351.351 0 0 1 .197-.318q.154-.089.43-.121a2.494 2.494 0 0 1 .123-.011q.75-.05 1.75-.05 4 0 7.65-1.95 3.65-1.95 6.55-5.15t4.55-7.1a21.034 21.034 0 0 0 1.398-4.716 17.995 17.995 0 0 0 .252-2.984 12.647 12.647 0 0 0-.249-2.575 9.166 9.166 0 0 0-1.101-2.875 4.426 4.426 0 0 0-3.199-2.158 6.806 6.806 0 0 0-1.151-.092 8.713 8.713 0 0 0-3.551.779 11.527 11.527 0 0 0-1.599.871 22.126 22.126 0 0 0-3.364 2.694 26.448 26.448 0 0 0-1.436 1.506q-2.25 2.55-4 5.3a42.216 42.216 0 0 0-1.281 2.143q-.574 1.032-1.006 1.971a21.509 21.509 0 0 0-.363.836q-1.8 7.5-3.6 14.45-1.8 6.95-3.45 12.6a211.353 211.353 0 0 1-.806 2.696q-1.181 3.854-2.194 6.554-1.35 3.6-2.25 4.4a1.635 1.635 0 0 1-1.178.499 1.948 1.948 0 0 1-.022.001Zm-673.5-44.2 1 1a37.287 37.287 0 0 1-3.454 6.81 32.548 32.548 0 0 1-1.946 2.69q-3.3 4.1-7.05 6.4a17.14 17.14 0 0 1-3.137 1.531 12.358 12.358 0 0 1-4.213.769 9.836 9.836 0 0 1-2.073-.205q-1.278-.275-2.226-.924a5.25 5.25 0 0 1-1.151-1.071 8.161 8.161 0 0 1-1.352-2.413 7.247 7.247 0 0 1-.398-2.387 8.603 8.603 0 0 1 .024-.617q.025-.347.076-.733.1-.75.2-1.55-2.819 3.802-5.315 6.358a30.925 30.925 0 0 1-2.535 2.342 14.686 14.686 0 0 1-2.683 1.767q-2.254 1.133-4.567 1.133-3.1 0-5.25-2.05a6.384 6.384 0 0 1-1.629-2.637q-.342-1.015-.459-2.254a14.414 14.414 0 0 1-.062-1.359 18.649 18.649 0 0 1 .452-3.981q.392-1.796 1.125-3.709a30.579 30.579 0 0 1 .023-.06 37.798 37.798 0 0 1 3.056-6.137 44.377 44.377 0 0 1 1.344-2.063q2.8-4.05 6.35-7.4a33.55 33.55 0 0 1 5.071-3.969 29.188 29.188 0 0 1 2.429-1.381 19.076 19.076 0 0 1 4.183-1.561A15.733 15.733 0 0 1 84 37.701a12.227 12.227 0 0 1 3.046.361 9.203 9.203 0 0 1 3.454 1.689 6.51 6.51 0 0 1 2.569 4.722 8.351 8.351 0 0 1 .031.728 7.213 7.213 0 0 1-.09 1.182q-.258 1.55-1.26 2.218-1.154.769-2.93.881a9.891 9.891 0 0 1-.62.019 18.324 18.324 0 0 0 .209-.948 23.066 23.066 0 0 0 .141-.802q.15-.95.15-1.75a8.048 8.048 0 0 0-.234-1.983 6.315 6.315 0 0 0-.866-1.967 3.459 3.459 0 0 0-1.87-1.378q-.833-.272-1.93-.272a8.865 8.865 0 0 0-3.271.651q-1.13.446-2.276 1.197a15.426 15.426 0 0 0-.153.102 23.691 23.691 0 0 0-3.155 2.563 31.64 31.64 0 0 0-2.445 2.637q-2.7 3.25-4.8 7.05a45.316 45.316 0 0 0-2.415 5.061 38.5 38.5 0 0 0-.885 2.439 28.274 28.274 0 0 0-.777 2.874q-.304 1.44-.389 2.735a15.035 15.035 0 0 0-.034.991q0 3.793 2.554 3.897a3.589 3.589 0 0 0 .146.003q2.3 0 5-2.15a33.59 33.59 0 0 0 2.564-2.28q1.277-1.249 2.585-2.754a56.926 56.926 0 0 0 .401-.466q2.85-3.35 5.45-6.95t4.6-6.6a9.739 9.739 0 0 1 .129-.189q.237-.339.336-.399a.072.072 0 0 1 .035-.012 6.992 6.992 0 0 1 .409.082q.456.104 1.055.291a22.651 22.651 0 0 1 .086.027 6.466 6.466 0 0 1 .984.397 5.186 5.186 0 0 1 .666.403 1.808 1.808 0 0 1 .427.417 1.48 1.48 0 0 1 .273.883 2.51 2.51 0 0 1-.079.591q-.145.593-.555 1.377a12.368 12.368 0 0 1-.266.482 145.901 145.901 0 0 0-.887 1.552q-.528.935-1.113 1.998-1.1 2-2 4.05-.868 1.978-.899 3.723a7.254 7.254 0 0 0-.001.127 5.859 5.859 0 0 0 .528 2.404 7.159 7.159 0 0 0 .272.546 2.722 2.722 0 0 0 .97 1.04q.516.314 1.197.387a4.039 4.039 0 0 0 .433.023 5.135 5.135 0 0 0 1.753-.349q2.253-.824 5.347-3.601a31.332 31.332 0 0 0 3.245-3.434q1.535-1.869 3.083-4.211a74.771 74.771 0 0 0 2.572-4.205Zm311.1 0 1 1a37.287 37.287 0 0 1-3.454 6.81 32.548 32.548 0 0 1-1.946 2.69q-3.3 4.1-7.05 6.4a17.14 17.14 0 0 1-3.137 1.531 12.358 12.358 0 0 1-4.213.769 9.836 9.836 0 0 1-2.073-.205q-1.278-.275-2.226-.924a5.25 5.25 0 0 1-1.151-1.071 8.161 8.161 0 0 1-1.352-2.413 7.247 7.247 0 0 1-.398-2.387 8.603 8.603 0 0 1 .024-.617q.025-.347.076-.733.1-.75.2-1.55-2.819 3.802-5.315 6.358a30.925 30.925 0 0 1-2.535 2.342 14.686 14.686 0 0 1-2.683 1.767q-2.254 1.133-4.567 1.133-3.1 0-5.25-2.05a6.384 6.384 0 0 1-1.629-2.637q-.342-1.015-.459-2.254a14.414 14.414 0 0 1-.062-1.359 18.649 18.649 0 0 1 .452-3.981q.392-1.796 1.125-3.709a30.579 30.579 0 0 1 .023-.06 37.798 37.798 0 0 1 3.056-6.137 44.377 44.377 0 0 1 1.344-2.063q2.8-4.05 6.35-7.4a33.55 33.55 0 0 1 5.071-3.969 29.188 29.188 0 0 1 2.429-1.381 19.076 19.076 0 0 1 4.183-1.561 15.733 15.733 0 0 1 3.667-.439 12.227 12.227 0 0 1 3.046.361 9.203 9.203 0 0 1 3.454 1.689 6.51 6.51 0 0 1 2.569 4.722 8.351 8.351 0 0 1 .031.728 7.213 7.213 0 0 1-.09 1.182q-.258 1.55-1.26 2.218-1.154.769-2.93.881a9.891 9.891 0 0 1-.62.019 18.324 18.324 0 0 0 .209-.948 23.066 23.066 0 0 0 .141-.802q.15-.95.15-1.75a8.048 8.048 0 0 0-.234-1.983 6.315 6.315 0 0 0-.866-1.967 3.459 3.459 0 0 0-1.87-1.378q-.833-.272-1.93-.272a8.865 8.865 0 0 0-3.271.651q-1.13.446-2.276 1.197a15.426 15.426 0 0 0-.153.102 23.691 23.691 0 0 0-3.155 2.563 31.64 31.64 0 0 0-2.445 2.637q-2.7 3.25-4.8 7.05a45.316 45.316 0 0 0-2.415 5.061 38.5 38.5 0 0 0-.885 2.439 28.274 28.274 0 0 0-.777 2.874q-.304 1.44-.389 2.735a15.035 15.035 0 0 0-.034.991q0 3.793 2.554 3.897a3.589 3.589 0 0 0 .146.003q2.3 0 5-2.15a33.59 33.59 0 0 0 2.564-2.28q1.277-1.249 2.585-2.754a56.926 56.926 0 0 0 .401-.466q2.85-3.35 5.45-6.95t4.6-6.6a9.739 9.739 0 0 1 .129-.189q.237-.339.336-.399a.072.072 0 0 1 .035-.012 6.992 6.992 0 0 1 .409.082q.456.104 1.055.291a22.651 22.651 0 0 1 .086.027 6.466 6.466 0 0 1 .984.397 5.186 5.186 0 0 1 .666.403 1.808 1.808 0 0 1 .427.417 1.48 1.48 0 0 1 .273.883 2.51 2.51 0 0 1-.079.591q-.145.593-.555 1.377a12.368 12.368 0 0 1-.266.482 145.901 145.901 0 0 0-.887 1.552q-.528.935-1.113 1.998-1.1 2-2 4.05-.868 1.978-.899 3.723a7.254 7.254 0 0 0-.001.127 5.859 5.859 0 0 0 .528 2.404 7.159 7.159 0 0 0 .272.546 2.722 2.722 0 0 0 .97 1.04q.516.314 1.197.387a4.039 4.039 0 0 0 .433.023 5.135 5.135 0 0 0 1.753-.349q2.253-.824 5.347-3.601a31.332 31.332 0 0 0 3.245-3.434q1.535-1.869 3.083-4.211a74.771 74.771 0 0 0 2.572-4.205Zm370.7 0 1 1a37.287 37.287 0 0 1-3.454 6.81 32.548 32.548 0 0 1-1.946 2.69q-3.3 4.1-7.05 6.4a17.14 17.14 0 0 1-3.137 1.531 12.358 12.358 0 0 1-4.213.769 9.836 9.836 0 0 1-2.073-.205q-1.278-.275-2.226-.924a5.25 5.25 0 0 1-1.151-1.071 8.161 8.161 0 0 1-1.352-2.413 7.247 7.247 0 0 1-.398-2.387 8.603 8.603 0 0 1 .024-.617q.025-.347.076-.733.1-.75.2-1.55-2.819 3.802-5.315 6.358a30.925 30.925 0 0 1-2.535 2.342 14.686 14.686 0 0 1-2.683 1.767q-2.254 1.133-4.567 1.133-3.1 0-5.25-2.05a6.384 6.384 0 0 1-1.629-2.637q-.342-1.015-.459-2.254a14.414 14.414 0 0 1-.062-1.359 18.649 18.649 0 0 1 .452-3.981q.392-1.796 1.125-3.709a30.579 30.579 0 0 1 .023-.06 37.798 37.798 0 0 1 3.056-6.137 44.377 44.377 0 0 1 1.344-2.063q2.8-4.05 6.35-7.4a33.55 33.55 0 0 1 5.071-3.969 29.188 29.188 0 0 1 2.429-1.381 19.076 19.076 0 0 1 4.183-1.561 15.733 15.733 0 0 1 3.667-.439 12.227 12.227 0 0 1 3.046.361 9.203 9.203 0 0 1 3.454 1.689 6.51 6.51 0 0 1 2.569 4.722 8.351 8.351 0 0 1 .031.728 7.213 7.213 0 0 1-.09 1.182q-.258 1.55-1.26 2.218-1.154.769-2.93.881a9.891 9.891 0 0 1-.62.019 18.324 18.324 0 0 0 .209-.948 23.066 23.066 0 0 0 .141-.802q.15-.95.15-1.75a8.048 8.048 0 0 0-.234-1.983 6.315 6.315 0 0 0-.866-1.967 3.459 3.459 0 0 0-1.87-1.378q-.833-.272-1.93-.272a8.865 8.865 0 0 0-3.271.651q-1.13.446-2.276 1.197a15.426 15.426 0 0 0-.153.102 23.691 23.691 0 0 0-3.155 2.563 31.64 31.64 0 0 0-2.445 2.637q-2.7 3.25-4.8 7.05a45.316 45.316 0 0 0-2.415 5.061 38.5 38.5 0 0 0-.885 2.439 28.274 28.274 0 0 0-.777 2.874q-.304 1.44-.389 2.735a15.035 15.035 0 0 0-.034.991q0 3.793 2.554 3.897a3.589 3.589 0 0 0 .146.003q2.3 0 5-2.15a33.59 33.59 0 0 0 2.564-2.28q1.277-1.249 2.585-2.754a56.926 56.926 0 0 0 .401-.466q2.85-3.35 5.45-6.95t4.6-6.6a9.739 9.739 0 0 1 .129-.189q.237-.339.336-.399a.072.072 0 0 1 .035-.012 6.992 6.992 0 0 1 .409.082q.456.104 1.055.291a22.651 22.651 0 0 1 .086.027 6.466 6.466 0 0 1 .984.397 5.186 5.186 0 0 1 .666.403 1.808 1.808 0 0 1 .427.417 1.48 1.48 0 0 1 .273.883 2.51 2.51 0 0 1-.079.591q-.145.593-.555 1.377a12.368 12.368 0 0 1-.266.482 145.901 145.901 0 0 0-.887 1.552q-.528.935-1.113 1.998-1.1 2-2 4.05-.868 1.978-.899 3.723a7.254 7.254 0 0 0-.001.127 5.859 5.859 0 0 0 .528 2.404 7.159 7.159 0 0 0 .272.546 2.722 2.722 0 0 0 .97 1.04q.516.314 1.197.387a4.039 4.039 0 0 0 .433.023 5.135 5.135 0 0 0 1.753-.349q2.253-.824 5.347-3.601a31.332 31.332 0 0 0 3.245-3.434q1.535-1.869 3.083-4.211a74.771 74.771 0 0 0 2.572-4.205ZM221.966 80.568a15.84 15.84 0 0 0 2.134.133q-.1-.5-.1-1.1v-1.1a34.102 34.102 0 0 1 .023-1.245 38.013 38.013 0 0 1 .627-5.555q.65-3.5 1.8-7.7a787.893 787.893 0 0 0 .154-.563q.542-1.986 1.139-4.21A1320.434 1320.434 0 0 0 229 54.501q4.2-15.3 8.35-27.5a723.596 723.596 0 0 1 .2-.588q4.028-11.806 7.15-19.612h2.4q1.2 0 2.4.05t2.3.05a57.798 57.798 0 0 0 2.419-.05 50.184 50.184 0 0 0 6.881-.75q4.4-.8 7.8-3.9-4.8-.1-9.6-.6T249.05.551a88.828 88.828 0 0 0-.73-.071Q243.142.001 236.7.001q-3.665 0-6.908.225a70.082 70.082 0 0 0-5.392.575q-3.29.487-5.764 1.383a16.659 16.659 0 0 0-2.836 1.317 9.096 9.096 0 0 0-.842.564 6.42 6.42 0 0 0-2.658 4.736q4.4-.8 8.1-1.15 1.908-.181 4.068-.321a195.295 195.295 0 0 1 4.282-.229q3.488-.15 8.241-.244a633.782 633.782 0 0 1 3.309-.056q-2.7 5.7-5.55 12.7-2.85 7-5.6 14.2-2.75 7.2-5.15 13.8-1.5 4.125-2.726 7.586a625.975 625.975 0 0 0-1.374 3.914 160.636 160.636 0 0 0-.323.929 176.589 176.589 0 0 0-2.177 6.771 37.166 37.166 0 0 0-.494 1.806q-.346 1.408-.523 2.66a17.513 17.513 0 0 0-.183 2.434 9.733 9.733 0 0 0 .15 1.743 7.017 7.017 0 0 0 1.55 3.357q1.262 1.484 4.066 1.867Zm374.6 0a15.84 15.84 0 0 0 2.134.133q-.1-.5-.1-1.1v-1.1a34.102 34.102 0 0 1 .023-1.245 38.013 38.013 0 0 1 .627-5.555q.65-3.5 1.8-7.7a787.893 787.893 0 0 0 .154-.563q.542-1.986 1.139-4.21a1320.434 1320.434 0 0 0 1.257-4.727q4.2-15.3 8.35-27.5a723.596 723.596 0 0 1 .2-.588q4.028-11.806 7.15-19.612h2.4q1.2 0 2.4.05t2.3.05a57.798 57.798 0 0 0 2.419-.05 50.184 50.184 0 0 0 6.881-.75q4.4-.8 7.8-3.9-4.8-.1-9.6-.6T623.65.551a88.828 88.828 0 0 0-.73-.071Q617.742.001 611.3.001q-3.665 0-6.908.225A70.082 70.082 0 0 0 599 .801q-3.29.487-5.764 1.383a16.659 16.659 0 0 0-2.836 1.317 9.096 9.096 0 0 0-.842.564 6.42 6.42 0 0 0-2.658 4.736q4.4-.8 8.1-1.15 1.908-.181 4.068-.321a195.295 195.295 0 0 1 4.282-.229q3.488-.15 8.241-.244a633.782 633.782 0 0 1 3.309-.056q-2.7 5.7-5.55 12.7-2.85 7-5.6 14.2-2.75 7.2-5.15 13.8-1.5 4.125-2.726 7.586a625.975 625.975 0 0 0-1.374 3.914 160.636 160.636 0 0 0-.323.929A176.589 176.589 0 0 0 592 66.701a37.166 37.166 0 0 0-.494 1.806q-.346 1.408-.523 2.66a17.513 17.513 0 0 0-.183 2.434 9.733 9.733 0 0 0 .15 1.743 7.017 7.017 0 0 0 1.55 3.357q1.262 1.484 4.066 1.867ZM415.4 41.801v-1.8q.8.1 1.9.2 1.027.093 2.316.186a180.465 180.465 0 0 0 .184.014q2.1-5.4 4.5-10.45 2.4-5.05 4.75-9 1.776-2.986 3.438-5.058a25.255 25.255 0 0 1 1.062-1.242 14.304 14.304 0 0 1 .972-.973q1.53-1.377 2.678-1.377a2.174 2.174 0 0 1 1.389.499 2.751 2.751 0 0 1 .061.051 1.752 1.752 0 0 1 .559.901q.091.336.091.749a4.378 4.378 0 0 1-.131.984q-.356 1.516-1.675 4.019a43.938 43.938 0 0 1-.294.547q-1.444 2.646-3.36 5.979a501.112 501.112 0 0 1-1.84 3.171 134.642 134.642 0 0 0-4.168 7.712A158.425 158.425 0 0 0 426 40.701h3.7q3.3 0 6.95-.1 3.65-.1 7.35-.5v1.8a302.508 302.508 0 0 1-4.903.496q-2.306.214-4.364.362a177.381 177.381 0 0 1-.583.042q-4.35.3-7.75.3h-1.5q-2.3 5.3-3.9 10.9a41.313 41.313 0 0 0-1.459 7.726 36.128 36.128 0 0 0-.141 3.174 22.505 22.505 0 0 0 .092 2.111q.198 2.098.826 3.386a4.765 4.765 0 0 0 .382.653q1.3 1.85 4.3 1.85a12.647 12.647 0 0 0 5.787-1.456q1.808-.92 3.592-2.421a24.857 24.857 0 0 0 .821-.723 33.464 33.464 0 0 0 4.562-5.231q2.279-3.196 4.238-7.269l1.3 1q-2.4 5.6-6.05 10.1a32.78 32.78 0 0 1-4.535 4.621 27.222 27.222 0 0 1-3.515 2.479 18.697 18.697 0 0 1-5.438 2.195 16.71 16.71 0 0 1-3.662.405 11.866 11.866 0 0 1-2.606-.27q-2.448-.551-3.994-2.23a7.904 7.904 0 0 1-1.651-2.871q-.649-1.926-.649-4.529 0-3.182.863-7.436a69.769 69.769 0 0 1 .787-3.414q1.65-6.45 4.15-13.25-1-.2-1.9-.35-.9-.15-1.7-.45Zm72.4 14 1.3.9q-2.1 5.4-5.5 9.55a33.166 33.166 0 0 1-3.444 3.637 24.861 24.861 0 0 1-3.756 2.813q-3.8 2.3-7.4 2.3a10.981 10.981 0 0 1-1.663-.119q-1.47-.225-2.487-.881-1.55-1-2.2-2.7a9.97 9.97 0 0 1-.623-2.9 11.776 11.776 0 0 1-.027-.8 15.489 15.489 0 0 1 .199-2.441 18.528 18.528 0 0 1 .001-.009q.2-1.25.5-2.55a53.992 53.992 0 0 1-3.634 5.786 49.542 49.542 0 0 1-.266.364q-2.082 2.826-4.362 4.521a15.689 15.689 0 0 1-.038.029 9.181 9.181 0 0 1-2.125 1.191 7.321 7.321 0 0 1-2.675.509 6.088 6.088 0 0 1-4.741-2.132 8.538 8.538 0 0 1-.709-.918 12.096 12.096 0 0 1-2.018-6.065 14.952 14.952 0 0 1-.032-.985q0-2.9.95-6.7.95-3.8 2.35-7.5 1.072-2.833 2.203-4.904a23.548 23.548 0 0 1 .697-1.196 13.352 13.352 0 0 1 .593-.876q1.004-1.353 1.807-1.505a1.075 1.075 0 0 1 .2-.019q.5 0 1.7.55a6.258 6.258 0 0 1 1.399.869 5.522 5.522 0 0 1 .601.581 20.833 20.833 0 0 0-.658 1.098q-.892 1.586-2.042 4.102a57.014 57.014 0 0 0-2.336 6.017 64.616 64.616 0 0 0-.464 1.483 30.616 30.616 0 0 0-.861 3.618 22.396 22.396 0 0 0-.339 3.782q0 .8.2 2.45a7.555 7.555 0 0 0 .521 2.014 6.745 6.745 0 0 0 .479.936 2.702 2.702 0 0 0 .889.911q.636.389 1.511.389a4.215 4.215 0 0 0 1.796-.425q.632-.296 1.275-.798a10.02 10.02 0 0 0 .829-.727 24.065 24.065 0 0 0 1.76-1.927q.853-1.035 1.715-2.274a44.059 44.059 0 0 0 .575-.849 76.296 76.296 0 0 0 2.991-4.932 87.486 87.486 0 0 0 .959-1.768q1.9-3.6 3.55-6.9l2.75-5.5q.46.076 1.241.27a43.214 43.214 0 0 1 .509.13 10.294 10.294 0 0 1 1.487.507 8.872 8.872 0 0 1 .613.293 2.238 2.238 0 0 1 .475.327 1.4 1.4 0 0 1 .475 1.073q0 .341-.729 2.033a61.521 61.521 0 0 1-.271.617 176.946 176.946 0 0 0-.799 1.828q-.354.82-.741 1.738a354.876 354.876 0 0 0-.81 1.934q-1.35 3.25-2.35 6.55a27.531 27.531 0 0 0-.609 2.362q-.244 1.172-.336 2.222a14.004 14.004 0 0 0-.055 1.216q0 1.357.426 2.316a3.703 3.703 0 0 0 .324.584 2.36 2.36 0 0 0 1.283.925q.412.131.919.164a5.401 5.401 0 0 0 .348.011q2.1 0 5.1-1.9a21.479 21.479 0 0 0 2.644-1.998q1.712-1.499 3.456-3.552a35.536 35.536 0 0 0 3.435-4.846 45.594 45.594 0 0 0 2.065-3.904Zm-203.6.3 1.2 1a16.442 16.442 0 0 1-1.773 3.195 11.378 11.378 0 0 1-3.877 3.455q-3.65 1.95-6.95 1.95a12.295 12.295 0 0 1-2.349-.22 11.377 11.377 0 0 1-.151-.03q-1.2-.25-2.3-.75-3.4 4.5-7.45 7.5a18.281 18.281 0 0 1-2.847 1.753q-1.751.855-3.452 1.123a9.929 9.929 0 0 1-1.551.124q-2.797 0-4.536-1.122a5.429 5.429 0 0 1-1.564-1.528 10.256 10.256 0 0 1-1.597-4.027 13.884 13.884 0 0 1-.203-2.423 21.093 21.093 0 0 1 .54-4.661 25.06 25.06 0 0 1 .46-1.739q1-3.3 2.65-6.2a21.34 21.34 0 0 1 1.635-2.477 15.684 15.684 0 0 1 2.065-2.223 8.699 8.699 0 0 1 1.415-1.025q.954-.545 1.919-.707a4.926 4.926 0 0 1 .816-.068 3.729 3.729 0 0 1 .678.064 4.572 4.572 0 0 1 .372.086 9.742 9.742 0 0 1 .988.325 8.973 8.973 0 0 1 .062.025q-.736.654-1.705 2.21a28.267 28.267 0 0 0-.445.74 33.287 33.287 0 0 0-1.349 2.589 43.267 43.267 0 0 0-1.001 2.311 52.685 52.685 0 0 0-1.803 5.281 48.638 48.638 0 0 0-.047.169 25.492 25.492 0 0 0-.442 1.837q-.173.869-.249 1.635a11.477 11.477 0 0 0-.059 1.128q0 2.626.767 3.988a3.449 3.449 0 0 0 .233.362q1 1.35 2.6 1.35 1.917 0 4.499-1.874a19.47 19.47 0 0 0 .501-.376 29.963 29.963 0 0 0 3.053-2.744 40.525 40.525 0 0 0 2.647-3.006 14.503 14.503 0 0 1-3.555-4.372 17.942 17.942 0 0 1-.795-1.678q-1.55-3.75-1.55-7.65 0-3.3 1.15-6.2a11.86 11.86 0 0 1 1.624-2.897 10.183 10.183 0 0 1 1.726-1.753 8.031 8.031 0 0 1 4.423-1.714 10.336 10.336 0 0 1 .877-.036 11.903 11.903 0 0 1 1.881.137q2.569.413 3.619 2.063a8.597 8.597 0 0 1 1.123 2.779q.251 1.134.275 2.447a15.237 15.237 0 0 1 .002.274 18.954 18.954 0 0 1-.417 3.843q-.37 1.784-1.067 3.714a34.344 34.344 0 0 1-.416 1.093q-1.9 4.75-4.8 9.15 1.8 1 3.8 1a9.435 9.435 0 0 0 1.56-.139q.722-.121 1.508-.348a16.91 16.91 0 0 0 .532-.163 10.905 10.905 0 0 0 2.296-1.069 14.477 14.477 0 0 0 1.654-1.181 10.529 10.529 0 0 0 2.214-2.538 13.687 13.687 0 0 0 .936-1.762Zm-147.5-.4 1.3 1q-2.3 6-6.3 10.75a34.743 34.743 0 0 1-5.032 4.918 29.113 29.113 0 0 1-3.768 2.532 21.555 21.555 0 0 1-5.128 2.106 18.049 18.049 0 0 1-4.572.594 11.828 11.828 0 0 1-4.211-.727 10.63 10.63 0 0 1-3.789-2.473q-3.2-3.2-3.2-9.6 0-5 1.95-9.75t5.15-8.55q3.2-3.8 7.1-6.05a17.947 17.947 0 0 1 3.574-1.597 13.684 13.684 0 0 1 4.126-.653 10.879 10.879 0 0 1 1.995.169q1.076.201 1.893.641a4.488 4.488 0 0 1 1.712 1.59 9.902 9.902 0 0 1 1.243 2.881 8.812 8.812 0 0 1 .257 2.119 10.548 10.548 0 0 1-.37 2.844 8.822 8.822 0 0 1-.98 2.256 5.329 5.329 0 0 1-.988 1.206 3.87 3.87 0 0 1-2.662.994q-1.7 0-2.9-1.5a4.276 4.276 0 0 0 1.111-.877q.433-.466.825-1.104a11.146 11.146 0 0 0 .664-1.269q1.1-2.45 1.1-4.65a5.151 5.151 0 0 0-.044-.697q-.048-.353-.15-.642a2.145 2.145 0 0 0-.256-.511 1.299 1.299 0 0 0-.556-.445q-.441-.196-1.126-.205a5.066 5.066 0 0 0-.068 0q-2.277 0-4.661 1.707a14.383 14.383 0 0 0-.889.693 24.106 24.106 0 0 0-2.997 3.043 32.383 32.383 0 0 0-2.303 3.157q-2.45 3.8-4 8a26.692 26.692 0 0 0-1.138 3.951 19.936 19.936 0 0 0-.412 3.949q0 3.1 1.5 5.7 1.279 2.216 4.591 2.543a12.309 12.309 0 0 0 1.209.057 15.645 15.645 0 0 0 5.524-1.04 20.019 20.019 0 0 0 2.526-1.16 24.603 24.603 0 0 0 4.848-3.493 31.526 31.526 0 0 0 2.702-2.807 31.641 31.641 0 0 0 4.763-7.587 36.947 36.947 0 0 0 .837-2.013Zm350.2 5.3-.9-1.7q1.4-2.6 3.65-7.6t4.45-11.4a3.27 3.27 0 0 1-1-2.357 3.89 3.89 0 0 1 0-.043 8.649 8.649 0 0 1 .27-2.216 6.425 6.425 0 0 1 1.43-2.684 16.95 16.95 0 0 1 .654-.694q.958-.956 1.557-1.154a.926.926 0 0 1 .289-.052 1.888 1.888 0 0 1 .464.052q.603.153.757.756a1.55 1.55 0 0 1 .029.142q.123.779.145 1.256a4.206 4.206 0 0 1 .005.194 1.615 1.615 0 0 1-.026.264q-.078.46-.389 1.32a23.542 23.542 0 0 1-.135.366 35.513 35.513 0 0 0-.187.503q-.344.952-.362 1.22a.412.412 0 0 0-.001.027q0 1.4 1.55 2.55 1.332.988 2.997 2.198a548.033 548.033 0 0 0 .553.402q2 1.45 3.55 3.5a7.414 7.414 0 0 1 1.304 2.882q.239 1.058.246 2.288a13.119 13.119 0 0 1 0 .08 14.386 14.386 0 0 1 0 .046q-.01 2.978-1.25 6.054-1.25 3.1-2.5 5.9a18.056 18.056 0 0 0-.711 1.842q-.539 1.679-.539 3.058 0 1.639.747 2.283a1.557 1.557 0 0 0 .153.117 3.579 3.579 0 0 0 1.679.58 4.5 4.5 0 0 0 .421.02 8.545 8.545 0 0 0 2.825-.502 11.989 11.989 0 0 0 2.125-.998 25.453 25.453 0 0 0 3.436-2.441 30.495 30.495 0 0 0 1.514-1.359q2.4-2.3 4.3-4.85 1.583-2.125 2.472-4.006a15.348 15.348 0 0 0 .328-.744l1.3 1a35.465 35.465 0 0 1-3.185 5.576 43.092 43.092 0 0 1-2.015 2.674 32.321 32.321 0 0 1-5.311 5.213 28.946 28.946 0 0 1-2.039 1.437 16.861 16.861 0 0 1-4.243 1.99 14.161 14.161 0 0 1-4.107.61 10.386 10.386 0 0 1-2.166-.213q-1.413-.301-2.482-1.03a6.075 6.075 0 0 1-.702-.557 5.973 5.973 0 0 1-1.93-4.123 8.153 8.153 0 0 1-.02-.577 14.471 14.471 0 0 1 .494-3.669 19.162 19.162 0 0 1 .906-2.631q1.4-3.3 2.75-6.55a20.755 20.755 0 0 0 .823-2.346q.527-1.879.527-3.504 0-3.2-1.85-4.75-1.85-1.55-3.75-2.85-2.3 5.9-4.8 11.2a194.074 194.074 0 0 1-1.194 2.487q-1.306 2.67-2.315 4.483a44.419 44.419 0 0 1-.591 1.03Zm220 0-.9-1.7q1.4-2.6 3.65-7.6t4.45-11.4a3.27 3.27 0 0 1-1-2.357 3.89 3.89 0 0 1 0-.043 8.649 8.649 0 0 1 .27-2.216 6.425 6.425 0 0 1 1.43-2.684 16.95 16.95 0 0 1 .654-.694q.958-.956 1.557-1.154a.926.926 0 0 1 .289-.052 1.888 1.888 0 0 1 .464.052q.603.153.757.756a1.55 1.55 0 0 1 .029.142q.123.779.145 1.256a4.206 4.206 0 0 1 .005.194 1.615 1.615 0 0 1-.026.264q-.078.46-.389 1.32a23.542 23.542 0 0 1-.135.366 35.513 35.513 0 0 0-.187.503q-.344.952-.362 1.22a.412.412 0 0 0-.001.027q0 1.4 1.55 2.55 1.332.988 2.997 2.198a548.033 548.033 0 0 0 .553.402q2 1.45 3.55 3.5a7.414 7.414 0 0 1 1.304 2.882q.239 1.058.246 2.288a13.119 13.119 0 0 1 0 .08 14.386 14.386 0 0 1 0 .046q-.01 2.978-1.25 6.054-1.25 3.1-2.5 5.9a18.056 18.056 0 0 0-.711 1.842q-.539 1.679-.539 3.058 0 1.639.747 2.283a1.557 1.557 0 0 0 .153.117 3.579 3.579 0 0 0 1.679.58 4.5 4.5 0 0 0 .421.02 8.545 8.545 0 0 0 2.825-.502 11.989 11.989 0 0 0 2.125-.998 25.453 25.453 0 0 0 3.436-2.441 30.495 30.495 0 0 0 1.514-1.359q2.4-2.3 4.3-4.85 1.583-2.125 2.472-4.006a15.348 15.348 0 0 0 .328-.744l1.3 1a35.465 35.465 0 0 1-3.185 5.576 43.092 43.092 0 0 1-2.015 2.674 32.321 32.321 0 0 1-5.311 5.213 28.946 28.946 0 0 1-2.039 1.437 16.861 16.861 0 0 1-4.243 1.99 14.161 14.161 0 0 1-4.107.61 10.386 10.386 0 0 1-2.166-.213q-1.413-.301-2.482-1.03a6.075 6.075 0 0 1-.702-.557 5.973 5.973 0 0 1-1.93-4.123 8.153 8.153 0 0 1-.02-.577 14.471 14.471 0 0 1 .494-3.669 19.162 19.162 0 0 1 .906-2.631q1.4-3.3 2.75-6.55a20.755 20.755 0 0 0 .823-2.346q.527-1.879.527-3.504 0-3.2-1.85-4.75-1.85-1.55-3.75-2.85-2.3 5.9-4.8 11.2a194.074 194.074 0 0 1-1.194 2.487q-1.306 2.67-2.315 4.483a44.419 44.419 0 0 1-.591 1.03Zm-150.9-5.2 1.2.9a38.699 38.699 0 0 1-4.63 7.798 34.54 34.54 0 0 1-2.22 2.602 34.719 34.719 0 0 1-5.461 4.738 29.735 29.735 0 0 1-3.539 2.112 22.673 22.673 0 0 1-6.391 2.153 20.349 20.349 0 0 1-3.459.297 17.65 17.65 0 0 1-3.514-.328q-2.046-.416-3.61-1.361a9.065 9.065 0 0 1-2.026-1.661q-3.05-3.35-3.05-8.25a20.368 20.368 0 0 1 .712-5.221 27.753 27.753 0 0 1 1.538-4.279 39.353 39.353 0 0 1 5.971-9.366 43.151 43.151 0 0 1 .029-.034 36.04 36.04 0 0 1 5.511-5.271 31.684 31.684 0 0 1 2.739-1.879 20.295 20.295 0 0 1 3.919-1.88 15.115 15.115 0 0 1 4.981-.87q2.3 0 4.25 1.2a3.578 3.578 0 0 1 1.4 1.674q.546 1.251.55 3.196a14.038 14.038 0 0 1 0 .03 12.531 12.531 0 0 1-2.077 6.887 15.179 15.179 0 0 1-.173.263q-2.25 3.35-5.9 5.95-3.65 2.6-8 4.25a33.683 33.683 0 0 1-6.901 1.836 30.478 30.478 0 0 1-1.749.214 23.767 23.767 0 0 0-.211 1.211 19.875 19.875 0 0 0-.089.689 16.544 16.544 0 0 0-.086 1.086 13.732 13.732 0 0 0-.014.614q0 1.5.35 3t1.25 2.75a5.787 5.787 0 0 0 1.892 1.668 7.101 7.101 0 0 0 .558.282 7.298 7.298 0 0 0 1.559.49q.743.151 1.601.193a14.017 14.017 0 0 0 .69.017q4.3 0 8.5-2.45t7.8-6.45q3.6-4 6.1-8.8Zm151.9 0 1.2.9a38.699 38.699 0 0 1-4.63 7.798 34.54 34.54 0 0 1-2.22 2.602 34.719 34.719 0 0 1-5.461 4.738 29.735 29.735 0 0 1-3.539 2.112 22.673 22.673 0 0 1-6.391 2.153 20.349 20.349 0 0 1-3.459.297 17.65 17.65 0 0 1-3.514-.328q-2.046-.416-3.61-1.361a9.065 9.065 0 0 1-2.026-1.661q-3.05-3.35-3.05-8.25a20.368 20.368 0 0 1 .712-5.221 27.753 27.753 0 0 1 1.538-4.279 39.353 39.353 0 0 1 5.971-9.366 43.151 43.151 0 0 1 .029-.034 36.04 36.04 0 0 1 5.511-5.271 31.684 31.684 0 0 1 2.739-1.879 20.295 20.295 0 0 1 3.919-1.88 15.115 15.115 0 0 1 4.981-.87q2.3 0 4.25 1.2a3.578 3.578 0 0 1 1.4 1.674q.546 1.251.55 3.196a14.038 14.038 0 0 1 0 .03 12.531 12.531 0 0 1-2.077 6.887 15.179 15.179 0 0 1-.173.263q-2.25 3.35-5.9 5.95-3.65 2.6-8 4.25a33.683 33.683 0 0 1-6.901 1.836 30.478 30.478 0 0 1-1.749.214 23.767 23.767 0 0 0-.211 1.211 19.875 19.875 0 0 0-.089.689 16.544 16.544 0 0 0-.086 1.086 13.732 13.732 0 0 0-.014.614q0 1.5.35 3t1.25 2.75a5.787 5.787 0 0 0 1.892 1.668 7.101 7.101 0 0 0 .558.282 7.298 7.298 0 0 0 1.559.49q.743.151 1.601.193a14.017 14.017 0 0 0 .69.017q4.3 0 8.5-2.45t7.8-6.45q3.6-4 6.1-8.8Zm174.9 0 1.2.9a38.699 38.699 0 0 1-4.63 7.798 34.54 34.54 0 0 1-2.22 2.602 34.719 34.719 0 0 1-5.461 4.738 29.735 29.735 0 0 1-3.539 2.112 22.673 22.673 0 0 1-6.391 2.153 20.349 20.349 0 0 1-3.459.297 17.65 17.65 0 0 1-3.514-.328q-2.046-.416-3.61-1.361a9.065 9.065 0 0 1-2.026-1.661q-3.05-3.35-3.05-8.25a20.368 20.368 0 0 1 .712-5.221 27.753 27.753 0 0 1 1.538-4.279 39.353 39.353 0 0 1 5.971-9.366 43.151 43.151 0 0 1 .029-.034 36.04 36.04 0 0 1 5.511-5.271 31.684 31.684 0 0 1 2.739-1.879 20.295 20.295 0 0 1 3.919-1.88 15.115 15.115 0 0 1 4.981-.87q2.3 0 4.25 1.2a3.578 3.578 0 0 1 1.4 1.674q.546 1.251.55 3.196a14.038 14.038 0 0 1 0 .03 12.531 12.531 0 0 1-2.077 6.887 15.179 15.179 0 0 1-.173.263q-2.25 3.35-5.9 5.95-3.65 2.6-8 4.25a33.683 33.683 0 0 1-6.901 1.836 30.478 30.478 0 0 1-1.749.214 23.767 23.767 0 0 0-.211 1.211 19.875 19.875 0 0 0-.089.689 16.544 16.544 0 0 0-.086 1.086 13.732 13.732 0 0 0-.014.614q0 1.5.35 3t1.25 2.75a5.787 5.787 0 0 0 1.892 1.668 7.101 7.101 0 0 0 .558.282 7.298 7.298 0 0 0 1.559.49q.743.151 1.601.193a14.017 14.017 0 0 0 .69.017q4.3 0 8.5-2.45t7.8-6.45q3.6-4 6.1-8.8Zm12.3-15.3v-1.2q0-3.069.86-4.659a3.878 3.878 0 0 1 .39-.591q.78-.967 1.618-1.331a2.569 2.569 0 0 1 1.032-.219 2.55 2.55 0 0 1 .451.037q.471.084.749.363a1.474 1.474 0 0 1 .259.341 1.16 1.16 0 0 1 .141.559 2.542 2.542 0 0 1-.019.287q-.056.488-.281 1.313a7.414 7.414 0 0 0-.183.909q-.117.828-.117 1.891a19.398 19.398 0 0 0 .367 3.661 26.656 26.656 0 0 0 .933 3.489q1.3 3.85 2.6 8.1t1.3 8.85q0 1.3-.15 2.55a17.018 17.018 0 0 1-.293 1.719 14.686 14.686 0 0 1-.157.631q3.5-.6 6.6-3.15a16.612 16.612 0 0 0 2.203-2.227q.969-1.168 1.919-2.649a41.041 41.041 0 0 0 1.878-3.274l.9 1a21.097 21.097 0 0 1-1.857 4.031 15.032 15.032 0 0 1-3.843 4.319q-3.8 2.85-8.3 3.55-1.6 4.3-5.05 6.3a14.954 14.954 0 0 1-6.885 1.979 17.956 17.956 0 0 1-.865.021 17.447 17.447 0 0 1-2.997-.242q-2.647-.462-4.453-1.808a11.703 11.703 0 0 1-2.893-3.058 10.882 10.882 0 0 1-1.007-1.992 17.031 17.031 0 0 1-1.095-4.688 15.7 15.7 0 0 1-.055-1.312q0-3 .8-4.6a7.922 7.922 0 0 1 .708-1.168q.468-.633 1.021-1.069a4.671 4.671 0 0 1 .221-.163q1.112-.774 2.13-1.173a7.542 7.542 0 0 1 .07-.027q1.05-.4 1.45-.8 3-3.3 5.5-6.9 2.5-3.6 4.4-7.6Zm-45.7 15.3.9 1q-2.627 7.791-7.348 12.3a21.944 21.944 0 0 1-1.002.9 21.835 21.835 0 0 1-4.326 2.891 15.582 15.582 0 0 1-7.024 1.709q-3.146 0-4.99-1.595a5.932 5.932 0 0 1-.81-.855 9.016 9.016 0 0 1-1.818-4.546 11.798 11.798 0 0 1-.082-1.404q0-1.546.384-3.633a39.423 39.423 0 0 1 .466-2.167 64.863 64.863 0 0 1 1.278-4.512 78.669 78.669 0 0 1 .972-2.838 53.414 53.414 0 0 1 3.021-6.824 49.306 49.306 0 0 1 .229-.426 31.029 31.029 0 0 1 1.667-2.736q.895-1.304 1.843-2.347a17.836 17.836 0 0 1 .44-.467q1.301-1.332 2.564-1.839a4.102 4.102 0 0 1 1.536-.311 2.459 2.459 0 0 1 .91.164 2.282 2.282 0 0 1 .64.386 1.752 1.752 0 0 1 .559.901q.091.336.091.749 0 1.113-1.333 3.516a30.151 30.151 0 0 1-.217.384q-1.332 2.32-3.07 5.231a527.778 527.778 0 0 1-.58.969q-2.1 3.5-3.65 7.35-1.55 3.85-1.55 7.35a16.948 16.948 0 0 0 .066 1.555q.215 2.326 1.134 3.245a3.696 3.696 0 0 0 1.411.861q.586.206 1.308.287a8.857 8.857 0 0 0 .981.052 7.976 7.976 0 0 0 3.047-.645q1.174-.484 2.395-1.329a19.563 19.563 0 0 0 1.808-1.426 20.815 20.815 0 0 0 2.419-2.585q2.758-3.438 5.731-9.315Zm-831.8-20.9q5.5-.2 10.95-1.25 5.45-1.05 9.95-3.35a21.631 21.631 0 0 0 4.942-3.422 19.069 19.069 0 0 0 2.308-2.578 13.685 13.685 0 0 0 2.447-5.747 18.849 18.849 0 0 0 .303-3.453 17.717 17.717 0 0 0-.251-3.085q-.534-3.012-2.199-4.915-2.45-2.8-6.3-3.9a29.116 29.116 0 0 0-7.082-1.083 32.977 32.977 0 0 0-1.068-.017h-.95a4.546 4.546 0 0 0-.612.043 5.501 5.501 0 0 0-.338.057 114.018 114.018 0 0 0-4.246 9.296 137.238 137.238 0 0 0-2.304 6.104q-2.95 8.4-5.55 17.3Zm619.5 6.2a28.296 28.296 0 0 0 2.933-2.677 37.783 37.783 0 0 0 2.517-2.923q2.65-3.4 4.95-7.25a103.637 103.637 0 0 0 3.169-5.691 91.068 91.068 0 0 0 .931-1.859 69.821 69.821 0 0 0 1.422-3.104q.816-1.909 1.378-3.596 1-3 1-4.5a3.935 3.935 0 0 0-.005-.202q-.015-.292-.077-.417a.282.282 0 0 0-.018-.031.323.323 0 0 0-.234-.146.471.471 0 0 0-.066-.004.775.775 0 0 0-.371.129q-.737.433-2.239 2.317a40.963 40.963 0 0 0-.24.304 50.487 50.487 0 0 0-1.555 2.109q-.779 1.111-1.627 2.421a118.972 118.972 0 0 0-1.768 2.82q-2.8 4.6-5.5 10.4-2.7 5.8-4.6 11.9ZM531.716 57.447a63.326 63.326 0 0 0 .984-.496q3.4-1.75 6.55-4.15a25.888 25.888 0 0 0 3.623-3.323 22.105 22.105 0 0 0 1.577-1.977 11.479 11.479 0 0 0 1.554-3.023 9.744 9.744 0 0 0 .496-3.077 4.876 4.876 0 0 0-.039-.639q-.086-.649-.361-1.061a1.112 1.112 0 0 0-.461-.383q-.385-.183-1-.212a5.098 5.098 0 0 0-.239-.005 7.193 7.193 0 0 0-2.395.434q-.943.332-1.928.918a14.496 14.496 0 0 0-.777.498 23.1 23.1 0 0 0-2.974 2.445 30.237 30.237 0 0 0-2.226 2.405q-2.5 3-4.5 6.6a34.613 34.613 0 0 0-2.277 4.95 30.043 30.043 0 0 0-.723 2.25q2.303-.768 5.116-2.154Zm151.9 0a63.326 63.326 0 0 0 .984-.496q3.4-1.75 6.55-4.15a25.888 25.888 0 0 0 3.623-3.323 22.105 22.105 0 0 0 1.577-1.977 11.479 11.479 0 0 0 1.554-3.023 9.744 9.744 0 0 0 .496-3.077 4.876 4.876 0 0 0-.039-.639q-.086-.649-.361-1.061a1.112 1.112 0 0 0-.461-.383q-.385-.183-1-.212a5.098 5.098 0 0 0-.239-.005 7.193 7.193 0 0 0-2.395.434q-.943.332-1.928.918a14.496 14.496 0 0 0-.777.498 23.1 23.1 0 0 0-2.974 2.445A30.237 30.237 0 0 0 686 45.801q-2.5 3-4.5 6.6a34.613 34.613 0 0 0-2.277 4.95 30.043 30.043 0 0 0-.723 2.25q2.303-.768 5.116-2.154Zm174.9 0a63.326 63.326 0 0 0 .984-.496q3.4-1.75 6.55-4.15a25.888 25.888 0 0 0 3.623-3.323 22.105 22.105 0 0 0 1.577-1.977 11.479 11.479 0 0 0 1.554-3.023 9.744 9.744 0 0 0 .496-3.077 4.876 4.876 0 0 0-.039-.639q-.086-.649-.361-1.061a1.112 1.112 0 0 0-.461-.383q-.385-.183-1-.212a5.098 5.098 0 0 0-.239-.005 7.193 7.193 0 0 0-2.395.434q-.943.332-1.928.918a14.496 14.496 0 0 0-.777.498 23.1 23.1 0 0 0-2.974 2.445 30.237 30.237 0 0 0-2.226 2.405q-2.5 3-4.5 6.6a34.613 34.613 0 0 0-2.277 4.95 30.043 30.043 0 0 0-.723 2.25q2.303-.768 5.116-2.154ZM149.9 33.901q4.6-3.7 8.05-8.4 3.45-4.7 5.35-9.05a36.86 36.86 0 0 0 .831-2.06q1.069-2.915 1.069-4.79 0-.5-.05-.7a.328.328 0 0 0-.037-.093q-.056-.092-.172-.105a.356.356 0 0 0-.041-.002q-.973 0-3.322 3.318a43.057 43.057 0 0 0-.128.182q-1.646 2.351-3.585 5.718a144.091 144.091 0 0 0-1.965 3.532 152.916 152.916 0 0 0-4.168 8.355 180.578 180.578 0 0 0-1.832 4.095Zm748.4 33.2a19.451 19.451 0 0 0 .259-1.691 21.948 21.948 0 0 0 .041-.409 21.766 21.766 0 0 0 .061-.882q.025-.488.034-1.037a40.906 40.906 0 0 0 .005-.681q0-4.7-1.15-9.35-1.15-4.65-1.95-8.75-2.3 3.8-4.85 7.25-2.052 2.776-3.942 4.807a36.317 36.317 0 0 1-.908.943 16.847 16.847 0 0 0 2.363 3.659 22.249 22.249 0 0 0 2.287 2.341q3.15 2.8 7.75 3.8Zm-630.9-6.6q2.5-3.7 4.15-7.75a23.947 23.947 0 0 0 1.185-3.698 17.735 17.735 0 0 0 .465-3.952q0-2.546-.655-3.897a3.65 3.65 0 0 0-.195-.353 3.631 3.631 0 0 0-.544-.683 2.242 2.242 0 0 0-1.606-.667q-2 0-4.1 2.9a10.731 10.731 0 0 0-1.779 4.091 15.248 15.248 0 0 0-.321 3.209 20.988 20.988 0 0 0 .798 5.665 23.378 23.378 0 0 0 .052.185q.85 2.95 2.55 4.95Zm626.921 12.447a19.399 19.399 0 0 0 .379-.147 4.024 4.024 0 0 0 1.553-1.149q.906-1.053 1.528-2.895a14.585 14.585 0 0 0 .019-.056q-4.2-.8-7.45-3.3a27.871 27.871 0 0 1-2.205-1.875q-1.028-.977-1.804-1.954a14.125 14.125 0 0 1-.841-1.171q-2.155.098-2.199 3.362a10.2 10.2 0 0 0-.001.138q0 3.6 2.15 6.65a6.832 6.832 0 0 0 4.931 2.982 9.065 9.065 0 0 0 1.119.068q1.084 0 2.821-.653Zm-53.53-44.441a5.454 5.454 0 0 0 1.809.294 6.275 6.275 0 0 0 2.538-.531 7.696 7.696 0 0 0 1.912-1.219q.993-.848 1.505-1.731a3.784 3.784 0 0 0 .545-1.919 5.35 5.35 0 0 0-.038-.659q-.147-1.186-.862-1.741a2.889 2.889 0 0 0-.387-.254q-.815-.446-2.013-.446-2.4 0-4.85 1.55-.995.629-1.586 1.35a3.549 3.549 0 0 0-.864 2.3 4.027 4.027 0 0 0 .041.581 2.614 2.614 0 0 0 1.209 1.919 4.951 4.951 0 0 0 1.041.506Z"
        font-size="12"/>
</svg>
