<svg xmlns="http://www.w3.org/2000/svg" xmlns:xlink="http://www.w3.org/1999/xlink" version="1.1" xml:space="preserve"
     viewBox="0 0 960.0985107421875 315.8096008300781">
  <g transform="matrix(0.279 0 0 0.279 158.4941 193.239)" id="727991">
<g style="" vector-effect="non-scaling-stroke">
		<g transform="matrix(1 0 0 1 -161.5677 -161.3326)">
<path
  style="stroke: none; stroke-width: 1; stroke-dasharray: none; stroke-linecap: butt; stroke-dashoffset: 0; stroke-linejoin: miter; stroke-miterlimit: 4; is-custom-font: none; font-file-url: none; fill: rgb(0,139,149); fill-rule: nonzero; opacity: 1;"
  transform=" translate(-1171.7663, -527.582)"
  d="m 1306.57 465.08 l 2.695 -0.04 c 1.774 -0.067 4.412 -0.173 7.811 -0.587 c 3.364 -0.453 7.63 -1.106 11.965 -3.293 c 2.14 -1.107 4.224 -2.693 5.772 -4.907 c 1.587 -2.186 2.547 -4.973 3.427 -8 c 3.547 -12.2 5.293 -27.706 5.293 -45.386 c -0.04 -17.68 -2.026 -37.734 -7.92 -58.48 c -2.97 -10.334 -7.004 -20.827 -12.668 -30.747 c -2.85 -4.947 -6.104 -9.72 -9.825 -14.187 c -3.755 -4.426 -7.956 -8.546 -12.64 -12.106 c -9.336 -7.187 -20.693 -12.014 -32.959 -13.747 c -6.154 -0.893 -12.372 -1.147 -18.905 -0.747 c -3.1 0.16 -6.37 0.507 -9.53 0.974 a 92.178 92.178 0 0 0 -9.477 1.906 c -12.51 3.16 -24.524 8.92 -34.645 17.36 a 85.882 85.882 0 0 0 -13.688 14.294 a 95.302 95.302 0 0 0 -2.9 4.066 l -0.69 1.04 l -0.173 0.267 c -0.134 0.213 -0.01 0.013 -0.088 0.133 l -0.35 0.574 l -1.38 2.293 a 66.586 66.586 0 0 0 -4.099 8.707 c -4.763 12.253 -5.79 26.066 -4.912 39.946 c 0.9 13.934 3.776 27.987 7.241 42.014 c 3.455 14.053 7.666 28.08 11.223 42.533 c 3.563 14.427 6.244 29.413 6.479 44.667 c 0.052 3.813 -0.03 7.626 -0.3 11.426 c -0.151 1.907 -0.3 3.8 -0.535 5.694 a 65.438 65.438 0 0 1 -0.359 2.826 l -0.202 1.414 l -0.1 0.706 l -0.134 0.787 c -1.252 7.64 -3.75 15.387 -7.448 22.307 c -3.672 6.973 -8.497 13.213 -13.912 18.56 c -5.414 5.36 -11.394 9.866 -17.546 13.746 c -12.336 7.787 -25.346 13.08 -37.888 17.814 c -6.224 2.266 -12.38 4.52 -18.464 6.746 c -1.482 0.56 -2.958 1.12 -4.431 1.68 l -2.17 0.854 l -0.94 0.373 l -1.102 0.48 c -1.57 0.64 -2.712 1.227 -3.944 1.813 c -1.267 0.68 -2.543 1.334 -3.767 2.08 c -9.904 5.867 -18.033 14.267 -24.892 23.24 c -6.845 9.027 -12.329 18.787 -16.994 28.454 c -9.252 19.453 -15.651 38.493 -20.619 55.533 c -5.115 17.04 -8.721 32.187 -11.79 44.64 l -9.265 39.307 l 1.31 -10.48 a 1119.98 1119.98 0 0 1 4.121 -29.574 a 632.197 632.197 0 0 1 3.517 -21.053 a 660.026 660.026 0 0 1 4.972 -24.693 c 2.026 -8.774 4.396 -18.08 7.303 -27.814 c 2.915 -9.733 6.34 -19.906 10.823 -30.24 c 4.473 -10.32 9.834 -20.906 16.929 -31.12 c 7.048 -10.173 16.092 -19.986 27.763 -27.346 c 1.442 -0.934 2.957 -1.76 4.469 -2.614 c 1.61 -0.826 3.303 -1.706 4.679 -2.293 l 1.09 -0.507 l 1.282 -0.533 l 2.297 -0.947 c 1.527 -0.6 3.057 -1.213 4.593 -1.813 c 6.043 -2.293 12.16 -4.627 18.343 -6.973 c 12.164 -4.72 24.232 -10.014 35.183 -16.96 c 10.912 -6.934 20.548 -15.84 26.353 -27.04 c 2.933 -5.587 4.872 -11.587 5.913 -18.067 l 0.088 -0.533 l 0.086 -0.627 l 0.17 -1.253 a 54.97 54.97 0 0 0 0.303 -2.507 c 0.2 -1.667 0.32 -3.347 0.445 -5.04 c 0.222 -3.373 0.274 -6.773 0.207 -10.187 c -0.237 -13.68 -2.896 -27.52 -6.208 -41.466 c -3.344 -13.96 -7.493 -28.08 -10.97 -42.56 c -3.48 -14.454 -6.474 -29.294 -7.383 -44.574 c -0.464 -7.64 -0.367 -15.386 0.604 -23.106 c 1.009 -7.72 2.8 -15.44 5.801 -22.747 c 1.51 -3.693 3.17 -7.12 5.316 -10.733 l 1.447 -2.307 l 0.36 -0.573 l 0.28 -0.427 l 0.204 -0.293 l 0.814 -1.187 a 91.854 91.854 0 0 1 3.414 -4.64 a 99.187 99.187 0 0 1 16.036 -16.253 c 11.822 -9.507 25.73 -16.027 39.974 -19.214 c 3.558 -0.813 7.138 -1.44 10.714 -1.866 c 3.597 -0.44 7.096 -0.734 10.748 -0.827 c 6.965 -0.24 14.188 0.2 21.105 1.413 c 13.919 2.32 27.044 8.307 37.47 16.8 c 5.257 4.2 9.774 9.067 13.771 14.12 c 3.948 5.094 7.306 10.454 10.188 15.907 c 5.718 10.92 9.544 22.16 12.264 33.067 c 2.707 10.92 4.16 21.586 4.974 31.72 c 0.8 10.146 0.893 19.786 0.48 28.826 a 202.085 202.085 0 0 1 -2.707 25.16 c -1.333 7.694 -3.067 14.72 -5.24 20.827 c -1.053 3.067 -2.28 6.067 -4.2 8.44 c -1.893 2.387 -4.32 3.987 -6.663 5.027 c -4.746 2.053 -9.086 2.44 -12.516 2.706 c -3.454 0.214 -6.098 0.134 -7.877 0.08 c -1.776 -0.08 -2.693 -0.133 -2.693 -0.133"
  stroke-linecap="round"></path>
</g>
  <g transform="matrix(1 0 0 1 -39.8255 33.2519)">
<path
  style="stroke: none; stroke-width: 1; stroke-dasharray: none; stroke-linecap: butt; stroke-dashoffset: 0; stroke-linejoin: miter; stroke-miterlimit: 4; is-custom-font: none; font-file-url: none; fill: rgb(0,139,149); fill-rule: nonzero; opacity: 1;"
  transform=" translate(-1293.5085, -722.1665)"
  d="M 1305.439 474.013 s -0.266 0.24 -0.778 0.72 c -0.49 0.507 -1.2 1.254 -1.988 2.347 c -1.616 2.147 -3.545 5.613 -5.233 10.307 c -1.683 4.693 -3.296 10.586 -4.227 17.426 c -0.442 3.414 -0.792 7.094 -0.55 10.734 c 0.105 2.04 0.289 3.893 0.58 5.84 c 0.158 0.973 0.292 1.973 0.521 2.96 c 0.195 0.986 0.419 1.973 0.699 2.96 a 40.9 40.9 0 0 0 13.642 21.426 c 7.058 5.827 16.284 9.84 26.308 12.654 c 10.027 2.893 20.894 4.64 32.054 6.24 c 11.173 1.573 22.693 2.853 34.346 4.866 c 5.827 1 11.707 2.16 17.574 3.787 c 2.933 0.827 5.866 1.773 8.786 2.88 c 0.734 0.267 1.454 0.573 2.187 0.867 l 0.547 0.226 l 0.693 0.307 l 0.987 0.44 l 1.96 0.867 l 0.986 0.44 l 1.08 0.56 c 2.934 1.466 5.56 3.026 8.134 4.693 c 2.56 1.693 5.04 3.467 7.373 5.387 c 4.653 3.84 8.92 7.986 12.64 12.413 c 3.747 4.4 7.093 8.947 10.027 13.587 c 1.493 2.293 2.853 4.626 4.2 6.933 c 1.253 2.347 2.52 4.653 3.64 6.973 c 4.64 9.24 7.986 18.334 10.706 26.76 c 2.627 8.48 4.6 16.334 6.027 23.334 c 0.747 3.493 1.293 6.8 1.8 9.84 c 0.507 3.053 0.96 5.84 1.28 8.386 c 0.627 5.08 1.067 9.067 1.253 11.814 c 0.24 2.72 0.294 4.186 0.294 4.186 s -0.56 -1.36 -1.507 -3.92 c -0.96 -2.546 -2.373 -6.293 -4.173 -11.053 c -0.947 -2.36 -1.84 -5 -2.947 -7.84 c -1.067 -2.853 -2.32 -5.907 -3.573 -9.173 c -2.587 -6.507 -5.507 -13.8 -9 -21.574 a 313.816 313.816 0 0 0 -5.64 -11.96 c -2 -4.08 -4.227 -8.2 -6.6 -12.36 c -4.747 -8.306 -10.294 -16.64 -16.92 -24.32 c -3.347 -3.813 -6.907 -7.493 -10.854 -10.773 c -1.973 -1.627 -3.973 -3.253 -6.093 -4.72 c -2.093 -1.493 -4.333 -2.867 -6.413 -4.067 l -0.8 -0.48 l -0.934 -0.493 l -1.906 -0.973 l -0.96 -0.494 l -0.12 -0.066 c 0.306 0.146 0.026 0.013 0.066 0.026 l -0.226 -0.093 l -0.44 -0.187 a 36.036 36.036 0 0 0 -1.787 -0.773 a 85.16 85.16 0 0 0 -7.547 -2.653 c -5.2 -1.574 -10.64 -2.894 -16.186 -4.014 c -11.094 -2.24 -22.534 -3.986 -33.84 -6.08 c -11.307 -2.066 -22.534 -4.533 -33.202 -8.16 c -10.598 -3.693 -20.83 -8.706 -28.678 -16.186 c -3.894 -3.72 -7.156 -7.96 -9.474 -12.467 a 48.56 48.56 0 0 1 -4.616 -13.707 a 41.763 41.763 0 0 1 -0.51 -3.36 c -0.164 -1.106 -0.224 -2.213 -0.311 -3.293 a 64.957 64.957 0 0 1 -0.117 -6.293 c 0.053 -4.28 0.888 -8.054 1.698 -11.574 c 1.722 -7.013 3.932 -12.88 6.244 -17.493 c 2.31 -4.6 4.704 -7.907 6.623 -9.88 c 0.945 -1 1.77 -1.667 2.325 -2.093 c 0.574 -0.4 0.87 -0.614 0.87 -0.614 m -221.409 326.24 c 0.405 -1.586 0.894 -3.133 1.338 -4.693 c 0.435 -1.56 0.948 -3.08 1.405 -4.613 a 471.027 471.027 0 0 1 2.839 -9.187 l 5.753 -18.133 l 5.687 -18.027 l 5.637 -18.013 l 7.574 -24.187 l 6.42 24.64 c 1.646 6.32 3.31 12.64 4.806 19 l 2.178 9.56 c 0.741 3.187 1.354 6.4 2.014 9.613 c 0.671 3.2 1.244 6.414 1.864 9.627 c 0.599 3.213 1.11 6.453 1.651 9.68 c 0.567 3.227 1.021 6.467 1.47 9.72 c 0.473 3.24 0.9 6.493 1.273 9.747 c 0.396 3.253 0.728 6.52 1.036 9.786 c 0.336 3.254 0.565 6.534 0.785 9.8 c 0.265 3.267 0.396 6.56 0.517 9.84 c 0.056 1.64 0.154 3.267 0.176 4.92 l 0.043 4.92 c 0.072 3.28 -0.03 6.574 -0.117 9.854 c -0.046 3.28 -0.296 6.56 -0.504 9.84 c -0.198 3.266 -0.639 6.533 -0.954 9.786 c -0.149 1.627 -0.468 3.254 -0.705 4.867 c -0.248 1.613 -0.51 3.24 -0.8 4.84 c -0.38 -3.267 -0.57 -6.507 -0.95 -9.733 c -0.373 -3.227 -0.62 -6.454 -1.107 -9.667 c -0.415 -3.2 -0.783 -6.4 -1.274 -9.6 a 421.675 421.675 0 0 0 -1.424 -9.56 a 442.533 442.533 0 0 0 -1.56 -9.52 l -0.808 -4.76 l -0.87 -4.747 l -0.858 -4.733 l -0.928 -4.733 c -0.588 -3.16 -1.197 -6.32 -1.87 -9.467 c -0.643 -3.147 -1.243 -6.293 -1.94 -9.44 l -2.019 -9.413 c -0.692 -3.147 -1.35 -6.28 -2.096 -9.414 c -0.712 -3.133 -1.364 -6.28 -2.121 -9.413 l -4.43 -18.773 l -2.269 -9.387 l -2.335 -9.373 l 13.992 0.453 a 645.885 645.885 0 0 1 -3.332 9.093 c -1.188 3 -2.39 6 -3.642 8.974 c -1.3 2.96 -2.583 5.933 -3.975 8.853 l -2.112 4.36 c -0.69 1.467 -1.47 2.88 -2.207 4.32 c -1.48 2.88 -3.064 5.707 -4.669 8.52 c -0.799 1.4 -1.661 2.773 -2.488 4.16 c -0.824 1.4 -1.717 2.747 -2.583 4.12 c -1.752 2.72 -3.58 5.4 -5.506 8.013 c -0.971 1.307 -1.912 2.627 -2.918 3.907 c -1.024 1.253 -2.016 2.533 -3.086 3.773 m 352.969 9.12 c -0.947 -1.973 -1.773 -3.986 -2.693 -5.946 l -2.64 -5.934 l -5.32 -11.786 c -1.8 -3.894 -3.574 -7.787 -5.427 -11.654 c -0.92 -1.92 -1.8 -3.866 -2.76 -5.773 c -0.96 -1.907 -1.827 -3.853 -2.8 -5.76 a 1024.056 1024.056 0 0 0 -5.733 -11.427 l -2.907 -5.68 l -2.973 -5.653 c -1.987 -3.76 -3.947 -7.533 -6.014 -11.253 c -1.973 -3.774 -4.066 -7.494 -6.106 -11.227 l 13.493 -1.613 c -0.933 3.68 -1.853 7.36 -2.733 11.053 l -2.574 11.08 a 639.26 639.26 0 0 0 -2.453 11.107 l -2.32 11.133 c -0.76 3.707 -1.467 7.44 -2.173 11.16 c -0.707 3.72 -1.4 7.44 -2.04 11.173 c -1.267 7.467 -2.52 14.947 -3.547 22.44 a 400.564 400.564 0 0 0 -1.493 11.267 c -0.467 3.76 -0.92 7.52 -1.28 11.28 c -0.36 3.773 -0.734 7.533 -1.014 11.32 c -0.16 1.88 -0.266 3.773 -0.386 5.653 a 202.61 202.61 0 0 0 -0.32 5.68 a 359.034 359.034 0 0 0 -0.36 11.36 c -0.04 1.907 -0.014 3.787 -0.027 5.694 l 0.093 5.693 c 0.107 3.8 0.267 7.613 0.614 11.413 c 0.253 3.827 0.76 7.614 1.253 11.454 c -1.4 -3.6 -2.64 -7.28 -3.667 -11.014 c -1.04 -3.733 -1.88 -7.533 -2.693 -11.346 c -0.72 -3.814 -1.373 -7.654 -1.867 -11.52 c -0.493 -3.854 -0.933 -7.734 -1.213 -11.614 c -0.307 -3.88 -0.547 -7.76 -0.64 -11.653 a 215.09 215.09 0 0 1 -0.147 -5.827 c -0.053 -1.946 -0.04 -3.893 -0.026 -5.84 c 0.013 -1.946 0.04 -3.893 0.093 -5.826 c 0.027 -1.947 0.067 -3.894 0.173 -5.827 c 0.16 -3.893 0.387 -7.773 0.654 -11.64 c 0.253 -3.88 0.626 -7.747 1 -11.6 c 0.373 -3.867 0.826 -7.72 1.32 -11.573 c 0.506 -3.84 1.04 -7.68 1.6 -11.52 a 822.173 822.173 0 0 1 1.92 -11.467 c 0.68 -3.827 1.373 -7.64 2.173 -11.427 c 0.76 -3.8 1.573 -7.586 2.413 -11.373 c 0.814 -3.787 1.747 -7.547 2.654 -11.307 c 0.933 -3.76 1.906 -7.506 2.88 -11.253 l 4.893 -18.693 l 8.6 17.08 c 1.96 3.893 3.96 7.76 5.84 11.706 a 239 239 0 0 1 2.773 5.92 c 0.894 2 1.827 3.974 2.694 5.974 c 1.72 4.026 3.426 8.04 5 12.12 c 0.8 2.026 1.546 4.08 2.32 6.133 c 0.8 2.027 1.453 4.12 2.186 6.173 c 1.427 4.134 2.72 8.32 3.947 12.507 c 0.64 2.093 1.16 4.213 1.733 6.32 c 0.587 2.107 1.067 4.24 1.587 6.36 c 0.987 4.253 1.88 8.52 2.6 12.827 c 0.36 2.146 0.747 4.293 1.04 6.453 c 0.293 2.173 0.573 4.32 0.8 6.493 M 1241.821 555.44 s -1.422 1.053 -3.864 3.24 c -2.441 2.2 -5.845 5.6 -9.748 10.24 c -3.88 4.653 -8.153 10.64 -12.184 17.933 a 118.61 118.61 0 0 0 -10.432 25.694 a 119.635 119.635 0 0 0 -3.269 15.413 c -0.82 5.373 -1.315 10.987 -1.48 16.773 c -0.2 5.774 -0.039 11.734 0.476 17.8 a 178.894 178.894 0 0 0 2.427 18.48 c 2.206 12.494 5.734 25.227 10.152 37.92 c 1.081 3.16 2.326 6.347 3.473 9.467 a 282.11 282.11 0 0 0 1.876 4.787 l 1.939 4.733 c 2.642 6.333 5.482 12.68 8.3 19.067 c 2.862 6.4 5.726 12.813 8.578 19.186 c 2.815 6.44 5.6 12.88 8.27 19.334 c 5.3 12.92 10.145 25.92 13.888 38.866 c 3.797 12.934 6.486 25.827 7.713 38.267 c 1.275 12.427 0.973 24.387 -0.737 35.187 c -1.686 10.826 -4.759 20.44 -8.431 28.44 c -0.88 2.013 -1.877 3.906 -2.79 5.733 c -0.994 1.8 -1.923 3.533 -2.938 5.147 c -1.937 3.24 -3.935 6.08 -5.77 8.6 c -3.682 5.04 -7.06 8.573 -9.302 11 a 188.257 188.257 0 0 1 -3.601 3.573 s 1.01 -1.44 2.905 -4.133 c 1.853 -2.72 4.459 -6.774 7.38 -12.107 c 2.876 -5.347 5.983 -12.027 8.481 -19.987 c 2.546 -7.933 4.418 -17.133 5.036 -27.266 c 0.636 -10.12 -0.005 -21.134 -1.981 -32.627 a 211.79 211.79 0 0 0 -3.841 -17.547 c -1.596 -5.933 -3.452 -11.96 -5.515 -18.04 c -4.183 -12.16 -9.217 -24.546 -14.748 -37.04 c -2.735 -6.266 -5.603 -12.546 -8.521 -18.88 c -2.9 -6.36 -5.812 -12.746 -8.724 -19.146 a 551.401 551.401 0 0 1 -8.451 -19.507 l -1.999 -4.987 l -1.909 -4.96 c -1.255 -3.4 -2.43 -6.72 -3.521 -10.106 c -2.194 -6.76 -4.183 -13.534 -5.78 -20.347 c -1.599 -6.8 -2.884 -13.613 -3.811 -20.373 a 193.336 193.336 0 0 1 -1.627 -20.054 a 162.01 162.01 0 0 1 0.707 -19.306 a 145.968 145.968 0 0 1 2.996 -18.067 a 126.614 126.614 0 0 1 5.032 -16.333 c 1.987 -5.107 4.201 -9.867 6.593 -14.227 c 2.416 -4.347 4.944 -8.32 7.534 -11.893 c 2.614 -3.547 5.224 -6.734 7.801 -9.507 a 108.01 108.01 0 0 1 7.428 -7.267 c 4.66 -4.186 8.747 -6.92 11.548 -8.693 c 2.825 -1.76 4.441 -2.48 4.441 -2.48"
  stroke-linecap="round"></path>
</g>
  <g transform="matrix(1 0 0 1 -54.406 84.2177)">
<path
  style="stroke: none; stroke-width: 1; stroke-dasharray: none; stroke-linecap: butt; stroke-dashoffset: 0; stroke-linejoin: miter; stroke-miterlimit: 4; is-custom-font: none; font-file-url: none; fill: rgb(0,139,149); fill-rule: nonzero; opacity: 1;"
  transform=" translate(-1278.928, -773.1322)"
  d="M 1249.863 620.253 a 3.248 3.248 0 1 1 0.002 -6.495 a 3.248 3.248 0 0 1 -0.002 6.495 m -7.355 26.707 a 5.602 5.602 0 0 1 -5.605 -5.6 a 5.605 5.605 0 1 1 11.209 0 c 0 3.093 -2.51 5.6 -5.604 5.6 m -1.94 27.147 a 7.368 7.368 0 0 1 -7.373 -7.374 a 7.377 7.377 0 0 1 7.373 -7.373 a 7.377 7.377 0 0 1 7.375 7.373 a 7.369 7.369 0 0 1 -7.375 7.374 m 2.733 26.6 a 8.65 8.65 0 0 1 -8.657 -8.654 c 0 -4.773 3.876 -8.653 8.657 -8.653 c 4.78 0 8.656 3.88 8.656 8.653 a 8.65 8.65 0 0 1 -8.656 8.654 m 6.431 25.506 c -5.247 0 -9.5 -4.266 -9.5 -9.506 c 0 -5.254 4.253 -9.507 9.5 -9.507 s 9.5 4.253 9.5 9.507 c 0 5.24 -4.253 9.506 -9.5 9.506 m 9.258 24.2 c -5.5 0 -9.96 -4.466 -9.96 -9.96 c 0 -5.506 4.46 -9.96 9.96 -9.96 c 5.5 0 9.96 4.454 9.96 9.96 c 0 5.494 -4.46 9.96 -9.96 9.96 m 11.277 22.947 c -5.548 0 -10.044 -4.507 -10.044 -10.053 c 0 -5.547 4.496 -10.04 10.044 -10.04 c 5.546 0 10.044 4.493 10.044 10.04 c 0 5.546 -4.498 10.053 -10.044 10.053 m 11.985 22.307 c -5.444 0 -9.857 -4.414 -9.857 -9.854 c 0 -5.44 4.413 -9.853 9.857 -9.853 c 5.444 0 9.857 4.413 9.857 9.853 c 0 5.44 -4.413 9.854 -9.857 9.854 m 11.698 22.186 a 9.385 9.385 0 0 1 -9.389 -9.386 a 9.385 9.385 0 0 1 9.388 -9.387 c 5.184 0 9.388 4.2 9.388 9.387 c 0 5.186 -4.204 9.386 -9.388 9.386 m 10.608 22.414 a 8.62 8.62 0 0 1 -8.625 -8.627 c 0 -4.76 3.861 -8.613 8.625 -8.613 c 4.763 0 8.624 3.853 8.624 8.613 a 8.62 8.62 0 0 1 -8.624 8.627 m 8.616 22.88 a 7.515 7.515 0 0 1 -7.518 -7.52 c 0 -4.147 3.366 -7.52 7.518 -7.52 a 7.524 7.524 0 0 1 7.52 7.52 c 0 4.16 -3.366 7.52 -7.52 7.52 m 5.437 23.413 a 6.046 6.046 0 1 1 0 -12.093 c 3.342 0 6.051 2.706 6.051 6.04 a 6.05 6.05 0 0 1 -6.05 6.053 m 0.749 23.533 a 4.144 4.144 0 0 1 -4.145 -4.146 a 4.144 4.144 0 1 1 8.289 0 a 4.143 4.143 0 0 1 -4.144 4.146 m -5.264 22.414 a 1.68 1.68 0 1 1 0 -3.36 a 1.68 1.68 0 1 1 0 3.36"
  stroke-linecap="round"></path>
</g>
  <g transform="matrix(1 0 0 1 312.6909 -192.2881)">
<path
  style="stroke: none; stroke-width: 1; stroke-dasharray: none; stroke-linecap: butt; stroke-dashoffset: 0; stroke-linejoin: miter; stroke-miterlimit: 4; is-custom-font: none; font-file-url: none; fill: rgb(122,157,62); fill-rule: nonzero; opacity: 1;"
  transform=" translate(-1646.0249, -496.6265)"
  d="M 1640.293 601.96 s 20.654 -67.733 -27.2 -119.933 c -39.026 -42.56 -71.333 -38.814 -101.8 -78.774 c 0 0 -53.973 152.64 102.987 200.68 c 0 0 2.907 -68.866 -59.413 -120.68 c 0 0 66.506 34.84 85.426 118.707 m 10.12 -114.76 s -13 -38.56 13.614 -69.36 c 21.72 -25.107 40.333 -23.493 57.173 -46.96 c 0 0 33.573 86.787 -55.813 117.013 c 0 0 -2.814 -39.506 32.12 -70.32 c 0 0 -37.627 21.134 -47.094 69.627 m 17.4 132.707 s -15.546 -58.347 26.814 -101.36 c 34.56 -35.08 61.96 -30.907 89.133 -64.027 c 0 0 41.36 131.693 -93.853 167.853 c 0 0 -0.374 -58.76 54.293 -101.013 c 0 0 -57.72 27.667 -76.387 98.547"
  stroke-linecap="round"></path>
</g>
  <g transform="matrix(1 0 0 1 -136.0795 30.4254)">
<path
  style="stroke: none; stroke-width: 1; stroke-dasharray: none; stroke-linecap: butt; stroke-dashoffset: 0; stroke-linejoin: miter; stroke-miterlimit: 4; is-custom-font: none; font-file-url: none; fill: rgb(0,139,149); fill-rule: nonzero; opacity: 1;"
  transform=" translate(-1197.2545, -719.34)"
  d="M 1272.055 1011.893 c -202.886 0 -367.358 -164.466 -367.358 -367.346 c 0 -94.387 35.607 -180.454 94.104 -245.507 c -74.8 67.24 -121.852 164.747 -121.852 273.253 c 0 202.88 164.472 367.347 367.359 367.347 c 108.505 0 205.999 -47.053 273.252 -121.84 c -65.067 58.493 -151.12 94.093 -245.505 94.093"
  stroke-linecap="round"></path>
</g>
  <g transform="matrix(1 0 0 1 -48.6611 129.8116)">
<path
  style="stroke: none; stroke-width: 1; stroke-dasharray: none; stroke-linecap: butt; stroke-dashoffset: 0; stroke-linejoin: miter; stroke-miterlimit: 4; is-custom-font: none; font-file-url: none; fill: rgb(122,157,62); fill-rule: nonzero; opacity: 1;"
  transform=" translate(-1284.6729, -818.7262)"
  d="M 1627.347 805.813 c -69.614 208.96 -295.432 321.92 -504.387 252.307 c -97.205 -32.373 -173.62 -98.573 -220.561 -181.147 c 43.596 100.107 127.87 182.014 239.618 219.254 c 208.956 69.6 434.77 -43.36 504.383 -252.307 c 37.227 -111.747 22.227 -228.307 -31.733 -323.24 c 37.92 87.08 45.066 187.933 12.68 285.133"
  stroke-linecap="round"></path>
</g>
</g>
</g>
  <g transform="matrix(1 0 0 1 642.4185 195.6196)" style="" id="637565">

<path xml:space="preserve" font-family="Dancing Script" font-size="109" font-weight="bold"
      style="stroke: none; stroke-width: 0; stroke-dasharray: none; stroke-linecap: butt; stroke-dashoffset: 0; stroke-linejoin: miter; stroke-miterlimit: 4; is-custom-font: none; font-file-url: https://cdn.pixelied.com/user-assets/fonts/e1adda6a-1cc7-49e8-b33d-55514ae3eb0f.ttf; fill: rgb(0,139,149); fill-rule: nonzero; opacity: 1; white-space: pre;"
      d="M-294.90-11.70L-294.90-11.70Q-301.55-11.70-304.93-13.88Q-308.31-16.06-308.42-21.08L-308.42-21.08Q-308.42-22.17-307.22-22.17L-307.22-22.17Q-306.24-22.17-304.22-21.68Q-302.20-21.19-296.53-21.19L-296.53-21.19Q-286.94-21.19-278.88-23.20Q-270.81-25.22-264.87-28.65Q-258.93-32.09-255.66-36.39Q-252.39-40.70-252.39-45.38L-252.39-45.38Q-252.39-49.63-254.95-52.20Q-257.51-54.76-261.71-56.12Q-265.91-57.48-270.87-57.92Q-275.82-58.35-280.62-58.35L-280.62-58.35Q-282.69-58.35-284.76-58.30Q-286.83-58.25-288.69-58.25L-288.69-58.25Q-291.08-49.96-293.37-41.13Q-295.66-32.30-298.17-23.80L-298.17-23.80Q-301.44-23.80-303.84-25.55Q-306.24-27.29-306.24-29.80L-306.24-29.80Q-306.24-30.78-305.85-32.36Q-305.47-33.94-304.71-36.12L-304.71-36.12Q-304.06-38.19-302.48-42.99Q-300.89-47.78-298.71-54.32Q-296.53-60.86-293.86-68.11Q-291.19-75.36-288.31-82.33Q-285.42-89.31-282.58-94.87L-282.58-94.87Q-286.94-93.89-289.78-92.58Q-292.61-91.27-294.25-90.29Q-295.88-89.31-296.75-89.31L-296.75-89.31Q-297.41-89.31-298.44-90.07Q-299.48-90.84-300.30-91.82Q-301.11-92.80-301.11-93.56L-301.11-93.56Q-295.23-95.96-288.90-97.81Q-282.58-99.67-273.64-99.67L-273.64-99.67Q-269.72-99.67-265.03-99.07Q-260.35-98.47-256.10-96.67Q-251.84-94.87-249.06-91.33Q-246.29-87.78-246.29-81.90L-246.29-81.90Q-246.29-77.21-248.30-73.78Q-250.32-70.34-253.70-67.89Q-257.08-65.44-261.11-63.86Q-265.14-62.28-269.07-61.30L-269.07-61.30Q-262.31-60.43-257.79-58.52Q-253.26-56.61-250.59-54.10Q-247.92-51.60-246.78-48.93Q-245.63-46.26-245.63-43.75L-245.63-43.75Q-245.63-37.32-249.01-32.19Q-252.39-27.07-257.89-23.26Q-263.40-19.44-269.99-16.88Q-276.59-14.32-283.13-13.01Q-289.67-11.70-294.90-11.70ZM-287.60-62.39L-287.60-62.39Q-281.49-62.61-275.61-63.80Q-269.72-65.00-264.98-67.35Q-260.24-69.69-257.40-73.45Q-254.57-77.21-254.57-82.77L-254.57-82.77Q-254.57-88.00-257.40-90.84Q-260.24-93.67-264.82-94.76Q-269.39-95.85-274.63-95.85L-274.63-95.85Q-274.73-95.85-274.84-95.85Q-274.95-95.85-275.06-95.85L-275.06-95.85Q-278.77-88.55-281.82-79.99Q-284.87-71.43-287.60-62.39ZM-235.93-16.06L-235.93-16.06Q-239.53-16.06-242.20-18.46Q-244.87-20.86-244.87-25.65L-244.87-25.65Q-244.87-29.47-243.12-33.94Q-241.38-38.41-238.33-42.77Q-235.28-47.13-231.35-50.67Q-227.43-54.21-222.96-56.39Q-218.49-58.57-214.02-58.57L-214.02-58.57Q-209.33-58.57-206.06-56.17Q-202.79-53.78-202.79-49.85L-202.79-49.85Q-202.79-46.91-204.87-45.60Q-206.94-44.29-209.77-44.84L-209.77-44.84Q-209.55-45.82-209.39-46.80Q-209.23-47.78-209.23-48.87L-209.23-48.87Q-209.23-51.05-210.10-52.80Q-210.97-54.54-213.80-54.54L-213.80-54.54Q-216.86-54.54-220.02-52.47Q-223.18-50.40-226.07-47.07Q-228.95-43.75-231.24-39.77Q-233.53-35.79-234.84-31.98Q-236.15-28.16-236.15-25.11L-236.15-25.11Q-236.15-21.62-233.64-21.62L-233.64-21.62Q-231.13-21.62-228.08-24.07Q-225.03-26.53-221.92-30.23Q-218.82-33.94-215.98-37.81Q-213.15-41.68-211.08-44.40L-211.08-44.40Q-210.75-44.95-210.21-44.95L-210.21-44.95Q-209.77-44.84-208.52-44.46Q-207.26-44.08-206.17-43.31Q-205.08-42.55-205.08-41.35L-205.08-41.35Q-205.08-40.26-206.01-38.57Q-206.94-36.88-208.19-34.86Q-209.44-32.85-210.37-30.83Q-211.30-28.82-211.30-26.96L-211.30-26.96Q-211.30-25.55-210.53-24.29Q-209.77-23.04-208.03-23.04L-208.03-23.04Q-205.41-23.04-200.67-26.91Q-195.93-30.78-191.02-40.04L-191.02-40.04L-188.95-37.97Q-191.57-32.09-195.22-27.56Q-198.87-23.04-202.90-20.48Q-206.94-17.92-211.08-17.92L-211.08-17.92Q-215.55-17.92-217.73-20.75Q-219.91-23.58-220.13-26.85L-220.13-26.85Q-220.13-27.07-220.13-27.18Q-220.13-27.29-220.13-27.40L-220.13-27.40Q-224.49-22.17-228.14-19.11Q-231.79-16.06-235.93-16.06ZM-181.32-15.08L-181.32-15.08Q-186.99-15.08-190.64-18.62Q-194.29-22.17-194.29-29.47L-194.29-29.47Q-194.29-34.81-192.22-39.93Q-190.15-45.06-186.66-49.14Q-183.17-53.23-178.87-55.63Q-174.56-58.03-170.09-58.03L-170.09-58.03Q-165.52-58.03-163.50-55.74Q-161.48-53.45-161.48-50.40L-161.48-50.40Q-161.48-47.35-162.96-44.46Q-164.43-41.57-166.93-41.57L-166.93-41.57Q-169.00-41.57-170.31-43.64L-170.31-43.64Q-169.22-44.40-168.02-46.47Q-166.82-48.54-166.82-51.81L-166.82-51.81Q-166.82-52.69-167.26-53.18Q-167.70-53.67-168.90-53.67L-168.90-53.67Q-171.62-53.67-174.62-51.21Q-177.62-48.76-180.18-44.89Q-182.74-41.02-184.32-36.72Q-185.90-32.41-185.90-28.82L-185.90-28.82Q-185.90-25.76-184.32-23.20Q-182.74-20.64-178.16-20.64L-178.16-20.64Q-174.02-20.64-169.55-23.04Q-165.08-25.44-161.16-29.74Q-157.23-34.05-154.83-40.04L-154.83-40.04L-152.65-38.08Q-155.27-31.43-159.90-26.25Q-164.54-21.08-170.15-18.08Q-175.76-15.08-181.32-15.08ZM-122.79-17.04L-122.79-17.04Q-126.17-17.04-128.67-19.22Q-131.18-21.40-132.71-24.67Q-134.23-27.94-135.00-31.38Q-135.76-34.81-135.76-37.32L-135.76-37.32Q-134.23-37.64-131.94-38.30Q-129.66-38.95-127.26-40.10Q-124.86-41.24-123.28-42.93Q-121.70-44.62-121.70-47.02L-121.70-47.02Q-121.70-48.98-122.95-50.18Q-124.21-51.38-126.49-51.38L-126.49-51.38Q-129.55-51.38-132.27-49.36Q-135.00-47.35-137.34-44.08Q-139.68-40.81-141.59-36.99Q-143.50-33.18-144.97-29.58Q-146.44-25.98-147.42-23.37L-147.42-23.37Q-148.62-20.10-149.71-18.95Q-150.80-17.81-152.87-17.81L-152.87-17.81Q-153.64-17.81-154.67-18.24Q-155.71-18.68-156.42-20.42Q-157.12-22.17-157.12-25.98L-157.12-25.98Q-157.12-32.63-155.27-40.59Q-153.42-48.54-150.31-56.77Q-147.20-65.00-143.50-72.52Q-139.79-80.05-135.98-86.04Q-132.16-92.04-128.84-95.52Q-125.51-99.01-123.33-99.01L-123.33-99.01Q-121.48-99.01-120.23-96.78Q-118.97-94.54-118.97-91.05L-118.97-91.05Q-118.97-87.35-120.61-82.82Q-122.24-78.30-125.24-73.67Q-128.24-69.04-132.38-64.89Q-136.52-60.75-141.54-57.81L-141.54-57.81Q-144.59-50.72-146.22-43.80Q-147.86-36.88-148.29-31.54L-148.29-31.54Q-146.33-36.01-143.83-40.70Q-141.32-45.38-138.27-49.47Q-135.21-53.56-131.67-56.07Q-128.13-58.57-124.10-58.57L-124.10-58.57Q-119.74-58.57-116.47-55.52Q-113.20-52.47-113.20-47.89L-113.20-47.89Q-113.20-44.62-114.94-42.22Q-116.68-39.82-119.25-38.24Q-121.81-36.66-124.42-35.90Q-127.04-35.14-128.89-35.03L-128.89-35.03Q-128.57-33.61-127.97-31.43Q-127.37-29.25-126.39-27.18Q-125.40-25.11-123.88-23.69Q-122.35-22.28-120.28-22.28L-120.28-22.28Q-117.56-22.28-114.67-24.78Q-111.78-27.29-109.00-31.43Q-106.22-35.57-104.04-40.59L-104.04-40.59L-102.51-38.73Q-104.37-33.28-107.58-28.27Q-110.80-23.26-114.72-20.15Q-118.65-17.04-122.79-17.04ZM-138.38-65.22L-138.38-65.22Q-135.43-67.84-132.16-71.71Q-128.89-75.58-126.55-79.99Q-124.21-84.41-124.10-88.44L-124.10-88.44Q-124.10-88.55-124.10-88.60Q-124.10-88.66-124.10-88.77L-124.10-88.77Q-125.19-88.33-127.53-85.00Q-129.87-81.68-132.71-76.56Q-135.54-71.43-138.38-65.22ZM-53.25-11.70L-53.25-11.70Q-59.24-11.70-61.53-14.05Q-63.82-16.39-63.93-20.10L-63.93-20.10Q-63.93-23.26-62.68-27.67Q-61.42-32.09-60.11-36.12L-60.11-36.12Q-57.50-43.86-54.66-51.38Q-51.83-58.90-48.94-65.88Q-46.05-72.85-43.38-79.17Q-40.71-85.50-38.42-90.84L-38.42-90.84Q-45.83-90.73-51.23-90.40Q-56.63-90.07-61.09-89.58Q-65.56-89.09-70.36-88.22L-70.36-88.22Q-69.81-92.80-66.05-95.25Q-62.29-97.70-55.97-98.68Q-49.65-99.67-41.47-99.67L-41.47-99.67Q-37.22-99.67-33.46-99.50Q-29.70-99.34-26.27-99.01Q-22.84-98.68-19.57-98.36L-19.57-98.36Q-12.70-97.70-8.61-97.49Q-4.52-97.27-2.78-97.27L-2.78-97.27Q-6.05-94.22-11.01-92.85Q-15.97-91.49-21.42-91.16Q-26.87-90.84-31.77-90.84L-31.77-90.84Q-37.01-77.97-41.37-64.13Q-45.73-50.29-49.43-36.77L-49.43-36.77Q-50.85-31.54-51.78-27.89Q-52.70-24.24-53.14-21.24Q-53.57-18.24-53.57-14.86L-53.57-14.86Q-53.57-14.32-53.52-13.61Q-53.46-12.90-53.25-11.70ZM-24.58-17.70L-24.58-17.70Q-29.48-17.70-31.28-20.91Q-33.08-24.13-33.08-27.94L-33.08-27.94Q-33.08-31.43-31.99-35.08Q-30.90-38.73-28.99-41.90Q-27.09-45.06-24.74-46.96Q-22.40-48.87-20.00-48.87L-20.00-48.87Q-19.24-48.87-18.20-48.60Q-17.17-48.33-16.73-47.78L-16.73-47.78Q-18.04-46.15-19.40-43.75Q-20.76-41.35-21.91-38.68Q-23.05-36.01-23.71-33.28Q-24.36-30.56-24.36-28.27L-24.36-28.27Q-24.36-26.09-23.54-24.67Q-22.73-23.26-20.66-23.26L-20.66-23.26Q-18.58-23.26-15.70-25.60Q-12.81-27.94-10.19-31.00L-10.19-31.00Q-13.68-34.16-15.21-37.92Q-16.73-41.68-16.73-47.02L-16.73-47.02Q-16.73-49.31-15.59-52.25Q-14.44-55.19-11.88-57.37Q-9.32-59.55-4.96-59.55L-4.96-59.55Q-0.27-59.55 1.63-56.94Q3.54-54.32 3.54-50.72L3.54-50.72Q3.54-46.69 1.42-41.68Q-0.71-36.66-3.65-32.19L-3.65-32.19Q-2.34-31.54-0.60-31.54L-0.60-31.54Q1.04-31.54 3.32-32.30Q5.61-33.07 7.79-34.86Q9.97-36.66 11.28-39.72L11.28-39.72L13.24-38.30Q10.85-32.74 6.87-30.18Q2.89-27.62-0.93-27.62L-0.93-27.62Q-2.34-27.62-3.76-27.89Q-5.18-28.16-6.38-28.60L-6.38-28.60Q-10.08-24.24-14.88-20.97Q-19.67-17.70-24.58-17.70ZM-7.36-34.48L-7.36-34.48Q-4.74-38.30-2.89-42.66Q-1.04-47.02-1.04-50.72L-1.04-50.72Q-1.04-53.23-1.80-54.38Q-2.56-55.52-4.09-55.52L-4.09-55.52Q-6.16-55.52-8.34-52.58Q-10.52-49.63-10.52-45.17L-10.52-45.17Q-10.52-42.88-9.70-39.61Q-8.88-36.34-7.36-34.48ZM43.22-11.70L43.22-11.70Q44.85-17.15 46.92-23.64Q49.00-30.12 51.72-38.90Q54.45-47.67 58.04-59.77Q61.64-71.87 66.33-88.33L66.33-88.33Q66.44-88.66 66.76-89.96Q67.09-91.27 67.09-92.58L67.09-92.58Q67.09-93.45 66.82-93.78Q66.54-94.11 65.67-94.11L65.67-94.11Q63.38-94.11 61.26-92.25Q59.13-90.40 57.44-87.62Q55.75-84.84 54.83-81.84Q53.90-78.85 53.90-76.45L53.90-76.45Q53.90-73.83 54.99-71.33L54.99-71.33Q50.19-71.33 48.23-73.34Q46.27-75.36 46.27-78.41L46.27-78.41Q46.27-82.12 48.56-85.88Q50.85-89.64 54.39-92.74Q57.93-95.85 61.80-97.76Q65.67-99.67 68.83-99.67L68.83-99.67Q72.65-99.67 75.10-96.89Q77.55-94.11 79.13-89.31Q80.71-84.51 81.80-78.41Q82.89-72.31 83.88-65.55L83.88-65.55Q85.18-56.83 85.95-51.65Q86.71-46.47 87.20-43.42Q87.69-40.37 88.07-38.30Q88.45-36.23 88.89-33.61L88.89-33.61Q90.20-38.84 91.56-44.67Q92.92-50.51 94.34-56.50Q95.76-62.50 97.12-68.22Q98.48-73.94 99.90-78.96Q101.32-83.97 102.68-87.84Q104.04-91.71 105.35-94.00L105.35-94.00Q106.33-95.74 108.45-97.76Q110.58-99.77 114.18-99.77L114.18-99.77Q112.32-94.87 109.98-87.62Q107.64-80.37 105.24-71.92Q102.84-63.48 100.61-54.70Q98.37-45.93 96.63-37.70Q94.88-29.47 93.85-22.71Q92.81-15.95 92.81-11.70L92.81-11.70Q88.78-11.70 86.22-13.61Q83.66-15.52 82.35-21.08L82.35-21.08Q81.91-22.93 81.04-27.29Q80.17-31.65 79.08-37.59Q77.99-43.53 76.79-50.07Q75.59-56.61 74.50-62.88Q73.41-69.15 72.54-74.10Q71.67-79.06 71.12-81.68L71.12-81.68Q66.22-63.80 62.73-51.43Q59.24-39.06 56.63-31.27Q54.01-23.47 51.94-19.22Q49.87-14.97 47.80-13.34Q45.73-11.70 43.22-11.70ZM114.40-16.06L114.40-16.06Q110.80-16.06 108.13-18.46Q105.46-20.86 105.46-25.65L105.46-25.65Q105.46-29.47 107.20-33.94Q108.95-38.41 112.00-42.77Q115.05-47.13 118.97-50.67Q122.90-54.21 127.37-56.39Q131.84-58.57 136.30-58.57L136.30-58.57Q140.99-58.57 144.26-56.17Q147.53-53.78 147.53-49.85L147.53-49.85Q147.53-46.91 145.46-45.60Q143.39-44.29 140.56-44.84L140.56-44.84Q140.77-45.82 140.94-46.80Q141.10-47.78 141.10-48.87L141.10-48.87Q141.10-51.05 140.23-52.80Q139.36-54.54 136.52-54.54L136.52-54.54Q133.47-54.54 130.31-52.47Q127.15-50.40 124.26-47.07Q121.37-43.75 119.08-39.77Q116.79-35.79 115.49-31.98Q114.18-28.16 114.18-25.11L114.18-25.11Q114.18-21.62 116.68-21.62L116.68-21.62Q119.19-21.62 122.24-24.07Q125.30-26.53 128.40-30.23Q131.51-33.94 134.34-37.81Q137.18-41.68 139.25-44.40L139.25-44.40Q139.57-44.95 140.12-44.95L140.12-44.95Q140.56-44.84 141.81-44.46Q143.06-44.08 144.15-43.31Q145.24-42.55 145.24-41.35L145.24-41.35Q145.24-40.26 144.32-38.57Q143.39-36.88 142.14-34.86Q140.88-32.85 139.96-30.83Q139.03-28.82 139.03-26.96L139.03-26.96Q139.03-25.55 139.79-24.29Q140.56-23.04 142.30-23.04L142.30-23.04Q144.92-23.04 149.66-26.91Q154.40-30.78 159.30-40.04L159.30-40.04L161.37-37.97Q158.76-32.09 155.11-27.56Q151.46-23.04 147.42-20.48Q143.39-17.92 139.25-17.92L139.25-17.92Q134.78-17.92 132.60-20.75Q130.42-23.58 130.20-26.85L130.20-26.85Q130.20-27.07 130.20-27.18Q130.20-27.29 130.20-27.40L130.20-27.40Q125.84-22.17 122.19-19.11Q118.54-16.06 114.40-16.06ZM166.61-16.17L166.61-16.17Q161.81-16.17 158.87-19.01Q155.92-21.84 155.92-27.62L155.92-27.62Q155.92-32.09 157.61-38.73Q159.30-45.38 161.92-52.47L161.92-52.47Q161.16-52.69 160.12-52.85Q159.09-53.01 158.10-53.45L158.10-53.45L158.10-56.83Q159.85-56.61 160.99-56.50Q162.14-56.39 163.34-56.28L163.34-56.28Q165.63-62.06 168.30-67.46Q170.97-72.85 173.64-77.10Q176.31-81.35 178.71-83.81Q181.10-86.26 182.96-86.26L182.96-86.26Q184.05-86.26 185.03-85.44Q186.01-84.62 186.01-83.10L186.01-83.10Q186.01-80.92 183.77-76.88Q181.54-72.85 178.27-67.46Q175.00-62.06 171.95-55.96L171.95-55.96Q172.82-55.96 173.69-55.96Q174.56-55.96 175.33-55.96L175.33-55.96Q180.12-55.96 183.99-56.12Q187.86-56.28 191.89-56.72L191.89-56.72L191.89-53.12Q185.90-52.58 180.89-52.25Q175.87-51.92 171.29-51.81L171.29-51.81Q170.97-51.81 170.64-51.81Q170.31-51.81 169.99-51.81L169.99-51.81Q167.70-46.47 166.01-40.86Q164.32-35.25 164.32-29.91L164.32-29.91Q164.32-25.44 165.73-23.58Q167.15-21.73 170.20-21.73L170.20-21.73Q175.65-21.73 181.38-26.69Q187.10-31.65 191.35-40.15L191.35-40.15L192.88-39.06Q190.04-32.63 185.84-27.40Q181.65-22.17 176.74-19.17Q171.84-16.17 166.61-16.17ZM196.36-17.92L196.36-17.92Q192.66-17.92 190.31-21.35Q187.97-24.78 187.97-29.25L187.97-29.25Q187.97-32.30 188.95-36.45Q189.93-40.59 191.51-44.51Q193.09-48.44 194.78-51.05Q196.47-53.67 197.89-53.67L197.89-53.67Q198.65-53.67 200.23-52.85Q201.81-52.03 203.01-50.83L203.01-50.83Q201.81-49.09 200.12-45.49Q198.43-41.90 197.13-37.75Q195.82-33.61 195.82-30.23L195.82-30.23Q195.82-29.80 195.98-28.16Q196.15-26.53 196.80-25.11Q197.45-23.69 199.09-23.69L199.09-23.69Q200.94-23.69 203.07-25.71Q205.19-27.73 207.43-30.94Q209.66-34.16 211.79-37.86Q213.91-41.57 215.60-45.06Q217.29-48.54 218.38-50.94L218.38-50.94Q219.36-50.83 220.94-50.40Q222.52-49.96 223.72-49.25Q224.92-48.54 224.92-47.24L224.92-47.24Q224.92-46.91 223.89-44.57Q222.85-42.22 221.49-38.95Q220.13-35.68 219.09-32.25Q218.05-28.82 218.05-26.20L218.05-26.20Q218.05-24.67 218.65-23.53Q219.25-22.38 221.00-22.38L221.00-22.38Q223.29-22.38 226.45-24.46Q229.61-26.53 232.99-30.45Q236.37-34.37 238.98-39.82L238.98-39.82L240.62-38.52Q238.22-32.63 234.40-27.94Q230.59-23.26 226.23-20.59Q221.87-17.92 217.73-17.92L217.73-17.92Q214.57-17.92 212.99-19.39Q211.41-20.86 210.86-23.20Q210.32-25.55 210.21-27.94L210.21-27.94Q210.21-28.49 210.21-29.09Q210.21-29.69 210.21-30.12L210.21-30.12Q208.35-27.18 206.17-24.40Q203.99-21.62 201.54-19.77Q199.09-17.92 196.36-17.92ZM256.31-18.35L256.31-18.35Q252.28-18.35 249.77-20.48Q247.27-22.60 247.27-26.20L247.27-26.20Q247.27-29.25 248.79-32.74Q250.32-36.23 251.90-39.61Q253.48-42.99 253.48-45.60L253.48-45.60Q253.48-48.11 251.84-49.80Q250.21-51.49 248.03-52.58L248.03-52.58Q245.63-46.58 242.63-40.97Q239.64-35.36 237.78-32.19L237.78-32.19L236.15-35.36Q237.67-38.19 240.18-43.42Q242.69-48.65 244.98-55.08L244.98-55.08Q243.89-56.17 243.89-58.03L243.89-58.03Q243.89-60.86 245.63-63.37Q247.38-65.88 249.01-65.88L249.01-65.88Q250.32-65.88 250.92-64.40Q251.52-62.93 251.52-62.39L251.52-62.39Q251.52-61.84 251.03-60.43Q250.54-59.01 250.32-58.35L250.32-58.35Q250.43-57.16 252.23-56.01Q254.02-54.87 256.31-53.34Q258.60-51.81 260.35-49.53Q262.09-47.24 262.09-43.75L262.09-43.75Q262.09-40.59 260.67-37.32Q259.26-34.05 257.84-31.21Q256.42-28.38 256.42-26.31L256.42-26.31Q256.42-24.78 257.24-24.29Q258.06-23.80 259.15-23.80L259.15-23.80Q261.76-23.80 264.60-25.38Q267.43-26.96 270.16-29.47Q272.88-31.98 274.95-34.76Q277.02-37.54 278.11-39.82L278.11-39.82L280.73-37.86Q278.66-33.18 274.73-28.65Q270.81-24.13 266.01-21.24Q261.22-18.35 256.31-18.35ZM288.36-16.39L288.36-16.39Q281.38-16.39 277.62-20.15Q273.86-23.91 273.86-29.58L273.86-29.58Q273.86-34.37 276.31-39.77Q278.77-45.17 282.91-49.91Q287.05-54.65 292.07-57.59Q297.08-60.53 302.09-60.53L302.09-60.53Q304.93-60.53 307.49-59.06Q310.05-57.59 310.05-53.23L310.05-53.23Q310.05-49.09 307.65-45.49Q305.25-41.90 301.22-39.06Q297.19-36.23 292.34-34.43Q287.49-32.63 282.58-32.09L282.58-32.09Q282.47-31.65 282.42-31.16Q282.36-30.67 282.36-29.58L282.36-29.58Q282.36-29.03 282.53-27.67Q282.69-26.31 283.45-24.78Q284.22-23.26 285.96-22.17Q287.71-21.08 290.76-21.08L290.76-21.08Q295.34-21.08 299.97-23.64Q304.60-26.20 308.69-30.45Q312.78-34.70 315.50-39.93L315.50-39.93L317.68-38.19Q314.74-31.65 310.10-26.74Q305.47-21.84 299.86-19.11Q294.25-16.39 288.36-16.39ZM283.78-36.12L283.78-36.12Q286.62-36.45 290.10-38.08Q293.59-39.72 296.81-42.22Q300.02-44.73 302.09-47.73Q304.16-50.72 304.16-53.78L304.16-53.78Q304.16-54.98 303.73-55.41Q303.29-55.85 302.31-55.85L302.31-55.85Q299.80-55.85 297.08-54.05Q294.35-52.25 291.74-49.36Q289.12-46.47 287.05-42.99Q284.98-39.50 283.78-36.12Z"></path>
    <path xml:space="preserve" font-family="Dancing Script" font-size="109" font-weight="bold"
          style="stroke: none; stroke-width: 0; stroke-dasharray: none; stroke-linecap: butt; stroke-dashoffset: 0; stroke-linejoin: miter; stroke-miterlimit: 4; is-custom-font: none; font-file-url: https://cdn.pixelied.com/user-assets/fonts/e1adda6a-1cc7-49e8-b33d-55514ae3eb0f.ttf; fill: rgb(0,139,149); fill-rule: nonzero; opacity: 1; white-space: pre;"
          d="M-164.48 99.15L-164.48 99.15Q-170.48 99.15-172.76 96.81Q-175.05 94.46-175.16 90.76L-175.16 90.76Q-175.16 87.60-173.91 83.18Q-172.66 78.77-171.35 74.73L-171.35 74.73Q-168.73 67.00-165.90 59.47Q-163.06 51.95-160.18 44.98Q-157.29 38.00-154.62 31.68Q-151.95 25.36-149.66 20.02L-149.66 20.02Q-157.07 20.13-162.46 20.45Q-167.86 20.78-172.33 21.27Q-176.80 21.76-181.59 22.63L-181.59 22.63Q-181.05 18.05-177.29 15.60Q-173.53 13.15-167.21 12.17Q-160.88 11.19-152.71 11.19L-152.71 11.19Q-148.46 11.19-144.70 11.35Q-140.94 11.51-137.50 11.84Q-134.07 12.17-130.80 12.50L-130.80 12.50Q-123.93 13.15-119.85 13.37Q-115.76 13.59-114.01 13.59L-114.01 13.59Q-117.28 16.64-122.24 18.00Q-127.20 19.36-132.65 19.69Q-138.10 20.02-143.01 20.02L-143.01 20.02Q-148.24 32.88-152.60 46.72Q-156.96 60.56-160.67 74.08L-160.67 74.08Q-162.08 79.31-163.01 82.96Q-163.94 86.62-164.37 89.61Q-164.81 92.61-164.81 95.99L-164.81 95.99Q-164.81 96.53-164.75 97.24Q-164.70 97.95-164.48 99.15ZM-131.13 93.81L-131.13 93.81Q-133.52 93.81-134.56 90.10Q-135.60 86.40-135.60 81.49L-135.60 81.49Q-135.60 76.48-133.91 69.39Q-132.22 62.31-129.33 54.46Q-126.44 46.61-122.90 39.09Q-119.35 31.57-115.59 25.41Q-111.83 19.25-108.40 15.55Q-104.97 11.84-102.35 11.84L-102.35 11.84Q-100.06 11.84-98.86 14.35Q-97.66 16.86-97.66 19.58L-97.66 19.58Q-97.66 22.52-99.03 26.83Q-100.39 31.13-102.79 36.04Q-105.18 40.94-108.40 45.69Q-111.62 50.43-115.38 54.35Q-119.14 58.28-123.17 60.67L-123.17 60.67Q-124.59 64.38-125.40 67.60Q-126.22 70.81-126.55 73.64Q-126.88 76.48-126.88 79.20L-126.88 79.20Q-126.88 79.75-126.82 80.35Q-126.77 80.95-126.77 81.49L-126.77 81.49Q-126.33 80.84-125.35 78.11Q-124.37 75.39-122.68 71.74Q-120.99 68.09-118.48 64.54Q-115.98 61.00-112.60 58.66Q-109.22 56.31-104.86 56.31L-104.86 56.31Q-101.15 56.31-99.08 58.00Q-97.01 59.69-96.14 62.15Q-95.27 64.60-95.27 67.10L-95.27 67.10Q-95.27 70.59-96.41 73.64Q-97.55 76.70-98.70 79.37Q-99.84 82.04-99.84 84.44L-99.84 84.44Q-99.84 86.40-98.97 87.16Q-98.10 87.92-96.90 87.92L-96.90 87.92Q-94.50 87.92-91.29 85.53Q-88.07 83.13-84.86 79.15Q-81.64 75.17-79.35 70.37L-79.35 70.37L-77.61 72.23Q-80.11 77.68-83.49 82.26Q-86.87 86.83-90.91 89.56Q-94.94 92.28-99.63 92.28L-99.63 92.28Q-103.77 92.28-105.95 90.10Q-108.13 87.92-108.13 84.65L-108.13 84.65Q-108.13 82.36-107.31 79.59Q-106.49 76.81-105.73 73.97Q-104.97 71.14-104.97 68.85L-104.97 68.85Q-104.97 66.23-106.11 65.25Q-107.26 64.27-108.89 64.27L-108.89 64.27Q-111.62 64.27-113.80 66.40Q-115.98 68.52-117.72 71.90Q-119.46 75.28-120.99 79.04Q-122.52 82.80-124.04 86.18Q-125.57 89.56-127.26 91.68Q-128.95 93.81-131.13 93.81ZM-120.88 53.70L-120.88 53.70Q-118.05 51.19-115.43 47.70Q-112.81 44.21-110.58 40.45Q-108.35 36.69-106.66 33.15Q-104.97 29.61-103.99 26.77Q-103.00 23.94-102.90 22.41L-102.90 22.41Q-102.90 22.31-102.90 22.25Q-102.90 22.20-102.90 22.09L-102.90 22.09Q-103.55 22.09-105.68 24.76Q-107.80 27.43-110.58 31.95Q-113.36 36.48-116.14 42.14Q-118.92 47.81-120.88 53.70ZM-69.65 94.46L-69.65 94.46Q-76.63 94.46-80.39 90.70Q-84.15 86.94-84.15 81.27L-84.15 81.27Q-84.15 76.48-81.70 71.08Q-79.24 65.69-75.10 60.95Q-70.96 56.20-65.94 53.26Q-60.93 50.32-55.92 50.32L-55.92 50.32Q-53.08 50.32-50.52 51.79Q-47.96 53.26-47.96 57.62L-47.96 57.62Q-47.96 61.76-50.36 65.36Q-52.76 68.96-56.79 71.79Q-60.82 74.63-65.67 76.42Q-70.52 78.22-75.43 78.77L-75.43 78.77Q-75.54 79.20-75.59 79.69Q-75.65 80.18-75.65 81.27L-75.65 81.27Q-75.65 81.82-75.48 83.18Q-75.32 84.54-74.56 86.07Q-73.79 87.60-72.05 88.69Q-70.30 89.78-67.25 89.78L-67.25 89.78Q-62.67 89.78-58.04 87.22Q-53.41 84.65-49.32 80.40Q-45.23 76.15-42.51 70.92L-42.51 70.92L-40.33 72.66Q-43.27 79.20-47.91 84.11Q-52.54 89.01-58.15 91.74Q-63.76 94.46-69.65 94.46ZM-74.23 74.73L-74.23 74.73Q-71.39 74.41-67.91 72.77Q-64.42 71.14-61.20 68.63Q-57.99 66.12-55.92 63.13Q-53.85 60.13-53.85 57.08L-53.85 57.08Q-53.85 55.88-54.28 55.44Q-54.72 55.01-55.70 55.01L-55.70 55.01Q-58.21 55.01-60.93 56.80Q-63.66 58.60-66.27 61.49Q-68.89 64.38-70.96 67.87Q-73.03 71.36-74.23 74.73ZM-24.96 92.50L-24.96 92.50Q-28.99 92.50-31.50 90.38Q-34.01 88.25-34.01 84.65L-34.01 84.65Q-34.01 81.60-32.48 78.11Q-30.96 74.63-29.38 71.25Q-27.79 67.87-27.79 65.25L-27.79 65.25Q-27.79 62.74-29.43 61.06Q-31.06 59.37-33.24 58.28L-33.24 58.28Q-35.64 64.27-38.64 69.88Q-41.64 75.50-43.49 78.66L-43.49 78.66L-45.13 75.50Q-43.60 72.66-41.09 67.43Q-38.59 62.20-36.30 55.77L-36.30 55.77Q-37.39 54.68-37.39 52.83L-37.39 52.83Q-37.39 49.99-35.64 47.48Q-33.90 44.98-32.26 44.98L-32.26 44.98Q-30.96 44.98-30.36 46.45Q-29.76 47.92-29.76 48.47L-29.76 48.47Q-29.76 49.01-30.25 50.43Q-30.74 51.84-30.96 52.50L-30.96 52.50Q-30.85 53.70-29.05 54.84Q-27.25 55.99-24.96 57.51Q-22.67 59.04-20.93 61.33Q-19.18 63.62-19.18 67.10L-19.18 67.10Q-19.18 70.27-20.60 73.54Q-22.02 76.81-23.43 79.64Q-24.85 82.47-24.85 84.54L-24.85 84.54Q-24.85 86.07-24.03 86.56Q-23.22 87.05-22.13 87.05L-22.13 87.05Q-19.51 87.05-16.68 85.47Q-13.84 83.89-11.12 81.38Q-8.39 78.88-6.32 76.10Q-4.25 73.32-3.16 71.03L-3.16 71.03L-0.54 72.99Q-2.62 77.68-6.54 82.20Q-10.46 86.72-15.26 89.61Q-20.06 92.50-24.96 92.50ZM0.55 94.79L0.55 94.79Q-3.05 94.79-5.72 92.39Q-8.39 89.99-8.39 85.20L-8.39 85.20Q-8.39 81.38-6.65 76.91Q-4.90 72.45-1.85 68.09Q1.20 63.73 5.12 60.18Q9.05 56.64 13.52 54.46Q17.99 52.28 22.45 52.28L22.45 52.28Q27.14 52.28 30.41 54.68Q33.68 57.08 33.68 61.00L33.68 61.00Q33.68 63.94 31.61 65.25Q29.54 66.56 26.71 66.01L26.71 66.01Q26.92 65.03 27.09 64.05Q27.25 63.07 27.25 61.98L27.25 61.98Q27.25 59.80 26.38 58.06Q25.51 56.31 22.67 56.31L22.67 56.31Q19.62 56.31 16.46 58.38Q13.30 60.46 10.41 63.78Q7.52 67.10 5.23 71.08Q2.94 75.06 1.64 78.88Q0.33 82.69 0.33 85.74L0.33 85.74Q0.33 89.23 2.83 89.23L2.83 89.23Q5.34 89.23 8.39 86.78Q11.45 84.33 14.55 80.62Q17.66 76.91 20.49 73.05Q23.33 69.18 25.40 66.45L25.40 66.45Q25.72 65.91 26.27 65.91L26.27 65.91Q26.71 66.01 27.96 66.40Q29.21 66.78 30.30 67.54Q31.39 68.30 31.39 69.50L31.39 69.50Q31.39 70.59 30.47 72.28Q29.54 73.97 28.29 75.99Q27.03 78.00 26.11 80.02Q25.18 82.04 25.18 83.89L25.18 83.89Q25.18 85.31 25.94 86.56Q26.71 87.81 28.45 87.81L28.45 87.81Q31.07 87.81 35.81 83.95Q40.55 80.08 45.45 70.81L45.45 70.81L47.52 72.88Q44.91 78.77 41.26 83.29Q37.61 87.81 33.57 90.38Q29.54 92.94 25.40 92.94L25.40 92.94Q20.93 92.94 18.75 90.10Q16.57 87.27 16.35 84.00L16.35 84.00Q16.35 83.78 16.35 83.67Q16.35 83.56 16.35 83.45L16.35 83.45Q11.99 88.69 8.34 91.74Q4.69 94.79 0.55 94.79ZM36.73 120.19L36.73 120.19Q35.86 120.19 34.88 119.70Q33.90 119.21 33.19 118.55Q32.48 117.90 32.37 117.46L32.37 117.46Q35.10 109.51 37.01 103.67Q38.91 97.84 40.22 92.67Q41.53 87.49 42.56 81.87Q43.60 76.26 44.64 69.01Q45.67 61.76 46.98 51.52L46.98 51.52Q47.20 50.21 47.52 49.61Q47.85 49.01 49.60 49.01L49.60 49.01Q52.97 49.01 54.50 50.81Q56.03 52.61 56.03 54.79L56.03 54.79Q56.03 55.88 55.64 58.60Q55.26 61.33 54.50 65.03L54.50 65.03Q56.57 61.87 59.24 59.04Q61.91 56.20 65.18 54.41Q68.45 52.61 72.27 52.61L72.27 52.61Q77.61 52.61 81.10 56.20Q84.58 59.80 84.58 65.69L84.58 65.69Q84.58 69.94 82.68 74.68Q80.77 79.42 77.28 83.62Q73.79 87.81 68.89 90.49Q63.98 93.16 58.10 93.16L58.10 93.16Q54.61 93.16 52.54 92.28Q50.47 91.41 50.47 90.32L50.47 90.32Q50.47 89.56 51.28 89.40Q52.10 89.23 53.08 89.23L53.08 89.23Q58.21 89.12 62.40 87.05Q66.60 84.98 69.65 81.66Q72.70 78.33 74.34 74.52Q75.97 70.70 75.97 67.00L75.97 67.00Q75.97 63.73 74.50 61.33Q73.03 58.93 69.87 58.93L69.87 58.93Q67.14 58.93 64.36 60.67Q61.59 62.42 59.19 65.09Q56.79 67.76 54.94 70.65Q53.08 73.54 52.10 75.72L52.10 75.72Q50.03 82.91 48.34 90.05Q46.65 97.19 45.13 103.29Q43.60 109.40 42.02 113.65Q40.44 117.90 38.59 119.42L38.59 119.42Q37.71 120.19 36.73 120.19ZM96.57 92.94L96.57 92.94Q91.78 92.94 89.38 90.10Q86.98 87.27 86.98 83.24L86.98 83.24Q86.98 80.73 87.85 76.91Q88.73 73.10 90.31 68.90Q91.89 64.71 93.96 61.00Q96.03 57.29 98.43 54.95Q100.83 52.61 103.22 52.61L103.22 52.61Q104.53 52.61 105.51 53.37Q106.49 54.13 106.49 55.77L106.49 55.77Q106.49 57.19 104.80 60.02Q103.11 62.85 100.88 66.56Q98.65 70.27 96.96 74.24Q95.27 78.22 95.27 81.82L95.27 81.82Q95.27 85.31 96.52 86.45Q97.77 87.60 100.17 87.60L100.17 87.60Q103.88 87.60 108.24 83.89Q112.60 80.18 117.28 70.92L117.28 70.92L118.92 72.66Q115.10 82.26 109.22 87.60Q103.33 92.94 96.57 92.94ZM109.44 43.78L109.44 43.78Q107.37 43.78 105.68 42.74Q103.99 41.71 103.99 39.53L103.99 39.53Q103.99 36.91 106.82 35.06Q109.65 33.21 112.71 33.21L112.71 33.21Q114.67 33.21 116.03 34.08Q117.39 34.95 117.39 37.24L117.39 37.24Q117.39 39.53 114.89 41.65Q112.38 43.78 109.44 43.78ZM127.09 94.46L127.09 94.46Q120.12 94.46 116.36 90.70Q112.60 86.94 112.60 81.27L112.60 81.27Q112.60 76.48 115.05 71.08Q117.50 65.69 121.64 60.95Q125.79 56.20 130.80 53.26Q135.81 50.32 140.83 50.32L140.83 50.32Q143.66 50.32 146.22 51.79Q148.79 53.26 148.79 57.62L148.79 57.62Q148.79 61.76 146.39 65.36Q143.99 68.96 139.96 71.79Q135.92 74.63 131.07 76.42Q126.22 78.22 121.32 78.77L121.32 78.77Q121.21 79.20 121.15 79.69Q121.10 80.18 121.10 81.27L121.10 81.27Q121.10 81.82 121.26 83.18Q121.43 84.54 122.19 86.07Q122.95 87.60 124.70 88.69Q126.44 89.78 129.49 89.78L129.49 89.78Q134.07 89.78 138.70 87.22Q143.34 84.65 147.42 80.40Q151.51 76.15 154.24 70.92L154.24 70.92L156.42 72.66Q153.47 79.20 148.84 84.11Q144.21 89.01 138.59 91.74Q132.98 94.46 127.09 94.46ZM122.52 74.73L122.52 74.73Q125.35 74.41 128.84 72.77Q132.33 71.14 135.54 68.63Q138.76 66.12 140.83 63.13Q142.90 60.13 142.90 57.08L142.90 57.08Q142.90 55.88 142.46 55.44Q142.03 55.01 141.05 55.01L141.05 55.01Q138.54 55.01 135.81 56.80Q133.09 58.60 130.47 61.49Q127.86 64.38 125.79 67.87Q123.72 71.36 122.52 74.73ZM164.37 95.23L164.37 95.23Q158.92 95.23 155.60 92.99Q152.27 90.76 150.86 87.32Q149.44 83.89 149.44 80.29L149.44 80.29Q149.44 77.13 150.31 75.39Q151.18 73.64 152.49 72.83Q153.80 72.01 154.94 71.57Q156.09 71.14 156.63 70.59L156.63 70.59Q159.36 67.76 162.25 64.00Q165.14 60.24 167.21 55.66L167.21 55.66L167.21 54.57Q167.21 50.21 168.68 48.41Q170.15 46.61 172.11 46.61L172.11 46.61Q173.42 46.61 174.02 47.27Q174.62 47.92 174.73 48.79L174.73 48.79Q174.73 49.45 174.45 50.32Q174.18 51.19 174.18 52.72L174.18 52.72Q174.18 55.99 175.76 60.18Q177.34 64.38 178.92 69.07Q180.50 73.75 180.50 78.66L180.50 78.66Q180.50 79.97 180.40 81.06Q180.29 82.15 180.07 83.13L180.07 83.13Q183.45 82.26 186.72 79.37Q189.99 76.48 192.93 70.81L192.93 70.81L194.24 71.79Q192.17 78.00 188.24 81.77Q184.32 85.53 179.09 86.40L179.09 86.40Q177.34 90.87 173.36 93.05Q169.39 95.23 164.37 95.23ZM163.61 90.43L163.61 90.43Q165.79 90.43 167.64 89.34Q169.50 88.25 170.59 86.18L170.59 86.18Q166.12 85.20 162.52 82.69Q158.92 80.18 156.96 77.57L156.96 77.57Q155.43 77.90 155.43 80.51L155.43 80.51Q155.43 84.11 157.51 87.27Q159.58 90.43 163.61 90.43ZM171.46 82.91L171.46 82.91Q171.68 82.15 171.73 81.11Q171.78 80.08 171.78 79.53L171.78 79.53Q171.68 74.63 170.48 69.83Q169.28 65.03 168.08 60.02L168.08 60.02Q166.12 63.40 163.50 67.32Q160.88 71.25 158.60 73.64L158.60 73.64Q160.34 76.59 163.72 79.20Q167.10 81.82 171.46 82.91Z"></path></g>
</svg>
