<?xml version="1.0" standalone="no"?>
<!DOCTYPE svg PUBLIC "-//W3C//DTD SVG 20010904//EN"
 "http://www.w3.org/TR/2001/REC-SVG-20010904/DTD/svg10.dtd">
<svg version="1.0" xmlns="http://www.w3.org/2000/svg"
 width="913.000000pt" height="913.000000pt" viewBox="0 0 913.000000 913.000000"
 preserveAspectRatio="xMidYMid meet">
<metadata>
Created by potrace 1.14, written by Peter Selinger 2001-2017
</metadata>
<g transform="translate(0.000000,913.000000) scale(0.100000,-0.100000)"
fill="#000000" stroke="none">
<path d="M3530 8835 c-205 -46 -354 -123 -493 -254 -126 -119 -203 -242 -254
-408 -26 -84 -27 -98 -27 -293 0 -192 2 -215 32 -355 18 -82 61 -262 97 -400
122 -474 139 -678 75 -896 -37 -123 -142 -252 -278 -343 -118 -77 -200 -115
-552 -252 -68 -27 -157 -70 -198 -96 -318 -208 -538 -674 -671 -1423 -41 -228
-83 -530 -79 -563 2 -15 22 50 46 153 123 513 182 723 269 955 113 303 237
514 385 655 101 97 163 131 403 220 347 129 515 224 652 369 91 95 149 197
185 322 21 71 23 100 23 279 0 236 -8 287 -115 690 -104 394 -123 497 -123
695 -1 142 2 176 21 243 81 285 316 499 624 569 129 29 321 29 431 0 218 -59
392 -212 506 -446 56 -115 86 -203 121 -361 83 -377 56 -901 -54 -1011 -33
-33 -113 -63 -170 -65 -17 0 -40 -5 -51 -10 -35 -16 143 0 186 17 61 25 102
81 133 182 101 329 91 809 -24 1152 -66 196 -143 331 -259 449 -110 111 -232
179 -400 222 -88 23 -350 25 -441 4z"/>
<path d="M8375 7683 c-57 -61 -91 -87 -282 -207 -99 -63 -223 -182 -279 -267
-75 -115 -114 -252 -114 -401 0 -107 30 -253 43 -208 30 107 65 206 89 255 62
123 167 259 261 337 l52 43 -41 -50 c-69 -84 -107 -146 -146 -237 -39 -90 -78
-255 -78 -328 0 -41 1 -42 28 -35 54 13 228 103 289 149 133 101 221 224 275
386 32 93 32 99 32 270 -1 153 -4 186 -25 264 -13 49 -29 90 -34 91 -6 2 -37
-27 -70 -62z"/>
<path d="M1093 7358 c-559 -548 -931 -1270 -1052 -2043 -35 -220 -41 -301 -41
-571 0 -274 8 -386 41 -594 201 -1250 1034 -2309 2209 -2808 275 -117 598
-205 930 -254 138 -20 192 -23 495 -23 303 0 357 3 495 23 715 106 1331 380
1875 833 116 97 361 337 352 345 -3 3 -43 -25 -89 -63 -587 -490 -1293 -781
-2047 -844 -203 -17 -638 -6 -816 21 -426 64 -773 173 -1140 357 -958 480
-1661 1362 -1915 2403 -117 476 -136 1009 -54 1490 83 484 255 932 521 1353
81 127 205 296 288 392 28 33 55 66 59 73 18 31 -15 4 -111 -90z"/>
<path d="M6337 7422 c-13 -22 -59 -245 -72 -352 -44 -359 18 -711 171 -973 94
-161 259 -335 417 -440 141 -93 388 -209 496 -232 l34 -7 -6 88 c-13 191 -70
393 -167 589 -71 143 -157 265 -277 395 -63 68 -77 87 -48 66 264 -193 476
-446 610 -729 89 -189 133 -346 170 -611 160 -1116 -168 -2251 -903 -3131
-186 -222 -495 -503 -749 -681 -1204 -845 -2761 -960 -4077 -302 -665 332
-1218 839 -1606 1471 -36 58 -66 102 -68 97 -2 -5 29 -74 68 -154 609 -1237
1801 -2064 3186 -2211 162 -17 584 -20 749 -5 1319 121 2499 888 3136 2038
365 659 537 1394 499 2142 -17 351 -87 734 -189 1033 -28 83 -30 94 -29 250 3
393 -110 675 -373 937 -123 123 -239 208 -436 320 -238 136 -319 193 -430 306
-56 57 -104 101 -106 96z"/>
<path d="M8989 6839 c-91 -90 -166 -141 -365 -246 -83 -44 -185 -103 -227
-132 -346 -233 -517 -545 -517 -939 0 -116 14 -240 29 -255 4 -4 20 33 35 82
95 305 326 619 590 802 l61 43 -83 -88 c-141 -150 -238 -304 -305 -486 -40
-107 -77 -274 -77 -344 0 -46 1 -46 28 -40 133 33 366 140 480 221 236 168
381 381 460 677 26 96 27 112 27 341 -1 212 -3 251 -23 334 -12 52 -25 97 -29
100 -5 4 -42 -28 -84 -70z"/>
<path d="M4240 6683 c-68 -77 -140 -282 -140 -398 0 -72 26 -181 57 -245 35
-73 140 -177 228 -226 134 -74 265 -109 755 -200 265 -49 389 -100 523 -216
114 -99 256 -307 352 -512 44 -95 203 -489 225 -559 16 -52 32 -36 24 26 -76
659 -322 1116 -695 1291 -112 53 -223 81 -464 115 -558 80 -703 125 -828 260
-63 69 -93 137 -107 243 -15 126 26 323 86 412 34 50 25 56 -16 9z"/>
<path d="M3570 5863 c-80 -53 -197 -175 -263 -275 -241 -362 -268 -864 -76
-1413 39 -113 75 -198 287 -670 210 -470 285 -741 286 -1030 1 -241 -49 -423
-170 -619 -30 -48 -54 -91 -54 -94 0 -13 84 77 129 138 90 122 140 229 183
390 20 76 23 108 23 295 0 182 -3 225 -23 320 -57 269 -127 462 -356 979 -232
523 -295 779 -283 1146 4 131 10 185 30 261 58 222 149 388 296 542 35 37 60
67 55 67 -5 0 -34 -16 -64 -37z"/>
<path d="M3700 5315 c-26 -32 13 -81 48 -59 23 15 26 38 7 58 -20 20 -39 20
-55 1z"/>
<path d="M3614 5085 c-29 -29 -26 -58 8 -87 26 -23 40 -23 72 3 32 25 33 59 3
87 -30 29 -52 28 -83 -3z"/>
<path d="M3581 4844 c-52 -67 6 -154 83 -124 35 13 60 54 52 85 -17 66 -96 89
-135 39z"/>
<path d="M3605 4608 c-15 -14 -28 -38 -32 -60 -5 -32 -1 -41 25 -68 76 -75
196 6 147 100 -27 52 -96 66 -140 28z"/>
<path d="M5176 4498 c-81 -295 -152 -643 -183 -888 -25 -204 -25 -672 0 -815
21 -122 66 -285 79 -285 5 0 5 29 1 68 -13 113 -7 438 11 607 27 259 122 809
154 895 6 17 32 -27 139 -247 71 -147 150 -312 173 -366 24 -53 47 -94 51 -90
4 5 1 46 -7 93 -32 184 -87 374 -165 570 -46 116 -226 480 -237 480 -6 0 -12
-10 -16 -22z"/>
<path d="M2216 3944 c-81 -261 -146 -478 -142 -481 14 -14 134 164 216 319
l58 111 12 -44 c65 -242 175 -820 200 -1049 22 -210 31 -218 49 -45 32 319 -5
738 -104 1175 -55 239 -120 483 -131 487 -5 1 -76 -211 -158 -473z"/>
<path d="M3659 4361 c-68 -69 -8 -184 86 -167 40 8 85 57 85 92 0 33 -25 81
-49 94 -39 20 -91 12 -122 -19z"/>
<path d="M3775 4149 c-53 -30 -73 -109 -40 -155 48 -70 164 -47 190 37 8 25
-11 82 -35 104 -23 21 -89 29 -115 14z"/>
<path d="M3885 3918 c-35 -19 -55 -52 -55 -91 0 -54 52 -107 104 -107 51 0 95
42 103 97 5 39 2 46 -30 78 -37 37 -81 46 -122 23z"/>
<path d="M3985 3676 c-68 -69 -27 -176 68 -176 97 0 140 107 72 176 -18 18
-35 24 -70 24 -35 0 -52 -6 -70 -24z"/>
<path d="M4117 3459 c-9 -5 -24 -24 -33 -41 -41 -80 38 -168 120 -134 70 29
88 105 37 157 -23 22 -39 29 -68 29 -21 0 -46 -5 -56 -11z"/>
<path d="M4241 3224 c-33 -14 -63 -65 -54 -93 26 -83 98 -107 154 -52 37 37
38 79 4 119 -30 35 -62 44 -104 26z"/>
<path d="M4311 2963 c-11 -10 -24 -32 -27 -50 -5 -27 -1 -37 25 -64 27 -26 37
-30 64 -25 41 8 67 39 67 80 0 64 -79 100 -129 59z"/>
<path d="M4372 2697 c-27 -29 -28 -61 -2 -87 43 -43 110 -14 110 48 0 57 -68
82 -108 39z"/>
<path d="M4408 2443 c-36 -8 -34 -77 2 -88 33 -11 62 12 58 47 -3 32 -27 48
-60 41z"/>
<path d="M4355 2160 c-8 -14 3 -30 21 -30 8 0 14 9 14 20 0 21 -24 28 -35 10z"/>
</g>
</svg>
